<svg width="31" height="33" fill="none" xmlns="http://www.w3.org/2000/svg"><path d="M15.5 33c2.364 0 4.28-1.847 4.28-4.125h-8.56c0 2.278 1.916 4.125 4.28 4.125zm14.414-9.65c-1.293-1.337-3.712-3.35-3.712-9.944 0-5.008-3.646-9.017-8.562-10V2.062C17.64.925 16.682 0 15.5 0c-1.182 0-2.14.924-2.14 2.063v1.343c-4.916.983-8.562 4.992-8.562 10 0 6.594-2.42 8.607-3.712 9.945-.402.415-.58.912-.576 1.399.007 1.057.868 2.063 2.148 2.063h25.684c1.28 0 2.141-1.006 2.148-2.063a1.973 1.973 0 00-.576-1.4z" fill="#fff"/></svg>