<svg width="17" height="31" fill="none" xmlns="http://www.w3.org/2000/svg"><path d="M4.221 30.12c-.024-2.082.083-4.222-.012-6.966-.02-.564-.039-6.502-.108-6.814l-3.85.024s-.08-2.191-.08-2.932v-2.184s3.074-.158 3.939-.23c0 0 .12-2.779.24-3.68.138-1.028.168-2.067.805-2.978C6.32 2.695 7.48 1.227 9.625.784 10.435.617 15.79-.38 15.988.44l-.12 4.943c-1.455 0-3.196-.141-4.681.906-.826.583-1.054 1.07-1.137 2.028-.05.558-.061 2.817-.061 2.817.784.107 1.944.06 2.786 0 .952-.067 3.395.172 3.395.172 0 1.495-.063 4.948-.057 5.095-.973-.016-1.862.012-2.993-.035-.183-.008-3.128.034-3.12.084.214 1.243-.094 2.563-.075 3.82.01.732.238 7.357.133 9.8l-5.837.05z" fill="#515151"/></svg>