<svg width="17" height="17" fill="none" xmlns="http://www.w3.org/2000/svg"><path d="M15.179 0H1.82A1.821 1.821 0 000 1.821V15.18A1.821 1.821 0 001.821 17H15.18A1.821 1.821 0 0017 15.179V1.82A1.821 1.821 0 0015.179 0zM3.643 7.893H1.214V5.464h2.429v2.429zM1.214 9.107h2.429v2.429H1.214V9.107zm3.643-7.893h7.286v14.572H4.857V1.214zm8.5 4.25h2.429v2.429h-2.429V5.464zm0 3.643h2.429v2.429h-2.429V9.107zm1.822-7.893a.607.607 0 01.607.607V4.25h-2.429V1.214h1.822zm-13.358 0h1.822V4.25H1.214V1.821a.607.607 0 01.607-.607zm0 14.572a.607.607 0 01-.607-.607V12.75h2.429v3.036H1.82zm13.358 0h-1.822V12.75h2.429v2.429a.607.607 0 01-.607.607z" fill="#000"/></svg>