<svg width="22" height="16" fill="none" xmlns="http://www.w3.org/2000/svg"><path d="M6.6 8a3.848 3.848 0 003.85-3.85A3.848 3.848 0 006.6.3a3.848 3.848 0 00-3.85 3.85A3.848 3.848 0 006.6 8zm2.64 1.1h-.285c-.715.344-1.51.55-2.355.55a5.426 5.426 0 01-2.355-.55H3.96A3.961 3.961 0 000 13.06v.99c0 .911.74 1.65 1.65 1.65h9.9c.91 0 1.65-.739 1.65-1.65v-.99A3.961 3.961 0 009.24 9.1zM16.5 8a3.3 3.3 0 10-.002-6.602A3.3 3.3 0 0016.5 8zm1.65 1.1h-.13a4.631 4.631 0 01-1.52.275c-.536 0-1.042-.11-1.52-.275h-.13c-.701 0-1.348.203-1.915.53a5.03 5.03 0 011.365 3.43v1.32c0 .076-.017.148-.02.22h6.07c.91 0 1.65-.739 1.65-1.65a3.848 3.848 0 00-3.85-3.85z" fill="#000"/></svg>