<svg width="18" height="21" fill="none" xmlns="http://www.w3.org/2000/svg"><path d="M5.267 13.098l.003-.004c-2.024-.13-3.63-1.761-3.63-3.758V1.758c.017-.2.13-.596.77-.596h6.07s.928-.025.928 1.08v2.627c.002.13.045.612.555.612h.185c.17-.016.457-.115.457-.621V.537a.518.518 0 00-.528-.512H.971a.518.518 0 00-.527.512v8.846c0 2.686 2.218 4.868 4.97 4.925.201-.021.477-.134.477-.594v-.11c0-.555-.624-.506-.624-.506zm6.764 2.32c-1.15 0-2.108.61-2.334 1.422-.004.02-.067.381.24.19.004-.002.007 0 .01-.003.545-.386 1.277-.624 2.084-.624.85 0 1.617.263 2.17.684 0 .002.001 0 .002.002.145.098.185.038.192-.04-.108-.912-1.119-1.631-2.364-1.631zm-.791-3.547c.144-.148.001-.352-.023-.383-.887-.846-1.848-.279-2.258.044-.023.022-.16.166-.047.297.95.73 1.642.628 2.329.042zm1.563-.337c-.048.064-.116.194-.011.313.691.605 1.383.72 2.336 0 .141-.153-.049-.331-.053-.334-.431-.329-1.394-.863-2.272.021z" fill="#000"/><path d="M2.632 4.856c-.003.003-.209.188-.063.352.947.714 1.637.6 2.326 0 .133-.142.01-.302-.028-.342-.86-.845-1.798-.338-2.235-.01zm3.871-.042c-.017.02-.216.252-.033.432.666.56 1.338.658 2.25-.017.156-.155-.03-.367-.04-.378-.428-.321-1.332-.81-2.177-.037zm10.08 1.756H7.478a.518.518 0 00-.527.511V9.29a.348.348 0 01-.197.301 3.886 3.886 0 01-.96.128c-.802-.001-1.527-.238-2.07-.618l-.002.002s-.323-.15-.248.207c.24.796 1.184 1.393 2.318 1.395a2.96 2.96 0 00.94-.152v.002l.012-.006c.02-.007.037-.015.056-.021.065-.016.151-.007.151.152v5.25c0 2.72 2.277 4.93 5.08 4.93 2.808 0 5.08-2.21 5.08-4.93V7.08a.519.519 0 00-.528-.51zm-.669 2.549v6.763c0 2.08-1.737 3.769-3.883 3.769-2.143 0-3.884-1.69-3.884-3.77V8.304c.016-.202.129-.597.77-.597h6.068s.929-.024.929 1.08v.333z" fill="#000"/></svg>