<svg width="20" height="18" fill="none" xmlns="http://www.w3.org/2000/svg"><path d="M16.89 3.846c-2.672-1.765-6.222-2.166-9.172-1.634C4.418-.971.721.493 0 .914c0 0 2.538 2.156 2.125 4.045-3.004 3.062-1.576 6.472 0 8.082C2.538 14.93 0 17.086 0 17.086c.714.422 4.402 1.882 7.718-1.285 2.943.529 6.493.13 9.171-1.637 4.141-2.644 4.155-7.66 0-10.318zm-6.675 10.3a11.784 11.784 0 01-3.06-.394l-.686.663c-.382.37-.809.69-1.27.95a4.97 4.97 0 01-1.796.512c.034-.062.065-.123.096-.182.687-1.273.872-2.415.556-3.427C2.925 11.38 2.249 10.243 2.249 9c0-2.847 3.567-5.154 7.966-5.154 4.398 0 7.965 2.307 7.965 5.154s-3.567 5.147-7.965 5.147zm-3.822-3.92a1.192 1.192 0 01-1.208-1.171c-.025-1.576 2.355-1.61 2.379-.038v.018a1.18 1.18 0 01-1.17 1.191zm2.562-1.171c-.028-1.576 2.352-1.614 2.379-.041v.02c.014 1.566-2.352 1.583-2.38.021zm4.978 1.17a1.192 1.192 0 01-1.209-1.17c-.024-1.576 2.356-1.61 2.38-.038v.018a1.176 1.176 0 01-1.171 1.191z" fill="#000"/></svg>