<svg width="17" height="18" fill="none" xmlns="http://www.w3.org/2000/svg"><path d="M15.618.052L4.994 3.29c-.216.07-.404.209-.538.397a1.12 1.12 0 00-.206.648v8.955a4.477 4.477 0 00-1.063-.134c-1.76 0-3.187.982-3.187 2.193 0 1.21 1.428 2.192 3.188 2.192 1.76 0 3.187-.982 3.187-2.192V7.341l8.5-2.569v6.324a4.462 4.462 0 00-1.063-.134c-1.76 0-3.187.981-3.187 2.192 0 1.21 1.428 2.193 3.188 2.193 1.76 0 3.187-.982 3.187-2.193V1.097c0-.172-.04-.342-.115-.496a1.088 1.088 0 00-.32-.388 1.046 1.046 0 00-.947-.16z" fill="#000"/></svg>