<svg width="14" height="14" fill="none" xmlns="http://www.w3.org/2000/svg"><path d="M13.809 12.105L11.082 9.38a.656.656 0 00-.464-.191h-.446a5.66 5.66 0 001.203-3.5A5.687 5.687 0 005.687 0 5.687 5.687 0 000 5.688a5.687 5.687 0 005.688 5.687 5.66 5.66 0 003.5-1.203v.446c0 .175.068.341.19.464l2.727 2.727a.654.654 0 00.927 0l.774-.774a.66.66 0 00.003-.93zM5.688 9.187a3.498 3.498 0 01-3.5-3.5c0-1.933 1.564-3.5 3.5-3.5 1.933 0 3.5 1.565 3.5 3.5 0 1.934-1.565 3.5-3.5 3.5z" fill="#000" fill-opacity=".5"/></svg>