<svg width="18" height="13" fill="none" xmlns="http://www.w3.org/2000/svg"><g clip-path="url(#clip0_123_136)"><path d="M10.35.719a.85.85 0 01.63.283c.162.175.261.416.261.684 0 .267-.1.509-.26.683a.854.854 0 01-.63.283.854.854 0 01-.63-.283 1.007 1.007 0 01-.26-.683c0-.268.099-.51.26-.684a.858.858 0 01.63-.283zm3.905 8.848c-.368-.385-.721-.746-.843-.822-.287-.179-.949-.67-1.24-.664-.214.007-.415.137-.602.404l-.982 1.607-.184.206-.185-.207-.981-1.606c-.188-.267-.389-.399-.602-.404-.292-.006-.954.485-1.241.664l-.683.421-4.725 1.123c-.305.245-2.315 2.628-1.94 2.713h17.955V11.03l-1.439-.736c-.463-.238-.942.155-1.194.287v-2.93h2.375c.237-.03.291-.344.183-.48l-.145-.184-1.317-1.679h.878c.208-.043.3-.354.118-.548l-1.51-1.921h.398c.279 0 .415-.261.255-.51L15.131.46c-.085-.106-.17-.251-.312-.256-.164-.005-.267.175-.36.298L13.07 2.29c-.179.26-.11.54.169.531h.443l-1.52 1.94c-.167.226-.065.547.21.504h.755l.041.045-1.412 1.798c-.158.264-.083.58.287.544h2.21v1.915zM4.932.755a.843.843 0 01.692.048c.208.11.378.309.458.565.08.256.059.524-.044.75a.93.93 0 01-.52.498.837.837 0 01-.691-.048.957.957 0 01-.459-.564 1.055 1.055 0 01.044-.75.936.936 0 01.52-.499zm2.34 2.75c-.035-.14.042-.285.171-.321.13-.039.262.046.296.186l.078.311.01-.004.003-.002a.335.335 0 01.293.048.55.55 0 01.24.455c-.001.146-.06.308-.21.47a.042.042 0 01-.021.015l-.066.028.691 2.799a.945.945 0 00-.133-.013.94.94 0 00-.352.075l-.659-2.667-.17.073-.063.026c-.367.141-.636.245-1.103.119-.003-.002-.006-.002-.01-.003-.327-.137-.497-.33-.66-.517l-.024-.027L5.373 6c.188.127.374.223.55.312.534.27.974.494 1.069 1.405.018.164.009.318.001.485v.004l-.004.11-.204.125c-.231.016-.492.07-.767.15.004-.122.01-.24.016-.36l.004-.083c.005-.095.01-.183.005-.265a.643.643 0 00-.049-.223l-.008-.019c-.034-.078-.065-.153-.11-.175a3.934 3.934 0 00-.402-.162c-.189-.069-.4-.137-.586-.193-.136.492-.322.816-.52 1.38-.068.195-.137.386-.209.568l-.192.093c-.305.148-.516.262-.84.187l-.103-.022c.13-.367.268-.782.403-1.2.202-.627.395-1 .537-1.511a1.652 1.652 0 01-.221-.379.902.902 0 01-.06-.497l.297-1.748-.016-.002c-.104-.004-.189-.01-.287.038-.136.066-.242.196-.362.342-.048.06-.098.121-.155.183l-.004.003-.13.144-.525.577a.054.054 0 01-.082 0l-.573-.654a.067.067 0 01.001-.089l.525-.575c.045-.05.085-.094.121-.136l.006-.006c.236-.28.43-.506.676-.657.25-.152.549-.23.997-.208h.002c.16.001.348.02.504.036.071.007.137.015.191.018.755.054 1.11.485 1.383.82.122.148.226.277.34.336.053.027.138-.011.233-.054.057-.027.119-.054.183-.073l.082-.034.048-.02.225-.097-.091-.37zM9.554.363a.113.113 0 01.037-.148c.047-.03.108-.013.136.04l.127.24a.113.113 0 01-.036.147c-.049.03-.109.013-.137-.04l-.127-.24zm.716-.255c0-.06.044-.108.1-.108.056 0 .1.05.1.108v.278c0 .06-.044.109-.1.109-.056 0-.1-.05-.1-.109V.108zm.739.169c.027-.051.088-.07.136-.04.047.03.064.095.037.148l-.128.24c-.028.052-.088.07-.136.04a.112.112 0 01-.037-.148l.128-.24zm.56.547c.049-.03.109-.013.137.04a.113.113 0 01-.037.147l-.22.139a.096.096 0 01-.137-.04.113.113 0 01.037-.148l.22-.138zm.235.777c.056 0 .1.048.1.108s-.046.109-.1.109h-.256c-.056 0-.1-.048-.1-.109 0-.06.044-.108.1-.108h.256zm-.155.802c.047.03.064.095.036.148-.027.05-.088.07-.136.04l-.221-.139a.114.114 0 01-.037-.148c.028-.052.088-.07.137-.04l.22.139zm-.503.609a.113.113 0 01-.036.148.095.095 0 01-.136-.04l-.128-.24a.113.113 0 01.037-.148c.047-.03.108-.013.136.04l.127.24zm-.716.254c0 .06-.045.108-.1.108-.055 0-.1-.049-.1-.108v-.278c0-.06.045-.108.1-.108.056 0 .1.048.1.108v.278zm-.738-.168c-.028.05-.088.07-.137.04a.114.114 0 01-.036-.148l.127-.24c.028-.051.088-.07.137-.04.048.03.064.095.036.148l-.127.24zM9.13 2.55c-.047.03-.109.012-.137-.04a.113.113 0 01.037-.148l.221-.138a.095.095 0 01.136.04.113.113 0 01-.036.147l-.221.139zm-.235-.778c-.055 0-.1-.05-.1-.108 0-.06.046-.108.1-.108h.257c.055 0 .1.048.1.108s-.045.108-.1.108h-.257zm.156-.801a.114.114 0 01-.037-.148c.028-.051.088-.07.136-.04l.221.138c.049.03.065.096.037.148-.028.051-.088.07-.136.04l-.22-.137z" fill="#000"/></g><defs><clipPath id="clip0_123_136"><path fill="#fff" d="M0 0h18v13H0z"/></clipPath></defs></svg>