<svg width="25" height="25" fill="none" xmlns="http://www.w3.org/2000/svg"><path d="M23.654 6.497c.16-.542 0-.941-.772-.941h-2.557c-.65 0-.95.342-1.11.724 0 0-1.303 3.173-3.143 5.23-.595.595-.868.786-1.194.786-.16 0-.408-.191-.408-.733V6.497c0-.65-.182-.941-.72-.941H9.73c-.407 0-.65.303-.65.585 0 .617.92.76 1.015 2.496v3.768c0 .824-.147.976-.473.976-.868 0-2.977-3.186-4.227-6.832-.252-.707-.5-.993-1.155-.993H1.684c-.73 0-.877.342-.877.724 0 .677.868 4.041 4.04 8.486 2.115 3.033 5.092 4.678 7.8 4.678 1.628 0 1.828-.364 1.828-.993 0-2.9-.148-3.173.668-3.173.378 0 1.029.19 2.548 1.653 1.736 1.736 2.022 2.513 2.995 2.513h2.556c.73 0 1.098-.364.885-1.085-.486-1.514-3.771-4.63-3.919-4.839-.377-.486-.269-.703 0-1.137.005-.004 3.125-4.397 3.446-5.886z" fill="#000"/></svg>