<svg width="28" height="17" fill="none" xmlns="http://www.w3.org/2000/svg"><path d="M27.023 16.197c-.956.611-4.846.793-5.787.095-.517-.383-.989-.863-1.438-1.319-.313-.319-.67-.474-.939-.82-.22-.283-.37-.617-.602-.896-.391-.47-.994-.869-1.47-.296-.717.862.113 2.557-.844 3.201-.32.217-.644.28-1.045.248l-.887.042c-.522.01-1.348.015-1.941-.095-.662-.121-1.208-.49-1.806-.762-1.136-.514-2.219-1.215-3.042-2.186-2.24-2.644-5.25-6.28-6.42-9.604C.562 3.12-.073 1.77.53 1.183c.818-.607 4.839-.779 5.465.161.255.382.416.941.596 1.374.224.539.346 1.048.696 1.525.31.424.54.85.78 1.315.27.521.524 1.021.852 1.501.222.327.81.975 1.182 1.024.908.119.851-2.133.784-2.683-.065-.53-.082-1.092-.065-1.63.015-.457.056-1.103-.21-1.477-.434-.61-1.399-.154-1.474-.974.16-.233.125-.44 1.19-.797.838-.282 1.38-.273 1.933-.228 1.127.092 2.322-.22 3.41.154 1.04.357.879 1.865.844 2.77-.047 1.234.003 2.438 0 3.69-.002.57-.023 1.125.657 1.08.639-.044.703-.593 1.008-1.045.424-.631.813-1.27 1.244-1.9.582-.85.757-1.804 1.305-2.675.196-.311.364-.992.666-1.238.228-.186.662-.106.938-.106h.657a64.81 64.81 0 011.533.032c.744.026 1.578-.139 2.316-.033 3.184.46-4.003 7.415-3.629 8.656.259.857 1.898 1.817 2.49 2.52.789.934 3.207 2.796 1.326 3.998z" fill="#515151"/></svg>