<svg width="32" height="23" fill="none" xmlns="http://www.w3.org/2000/svg"><path d="M31.171 12.461c-.01-.28-.018-.56-.024-.84-.044-1.622-.064-3.247-.153-4.87-.087-1.583-.594-3.047-1.206-4.494-.21-.497-.73-.903-1.197-1.206-.779-.506-1.823-.617-2.718-.684-1.197-.09-2.398-.088-3.597-.119-1.456-.037-2.913.105-4.363.014-1.45-.093-2.922-.1-4.374-.104-1.67-.005-3.34.045-5.01.065-.822.01-1.646.013-2.47-.001-.69-.013-1.893.061-2.538.33-1.289.537-1.64 1.13-2.334 2.394-.357.65-.495 1.371-.541 2.12C.6 5.812.269 6.515.289 7.256c.03 1.15-.106 2.292-.105 3.44.007 3.091-.02 6.207 1.286 9.037l.303.538c.21.286.288.669.532.915.498.506 1.495.604 2.154.686.822.102 1.652.105 2.477.173 1.359.112 2.781-.036 4.142.033 1.366.07 2.717.1 4.087.064 3.333-.089 6.657.141 9.987-.105 1.37-.1 3.085.206 4.08-.958.919-1.074 1.277-2.497 1.56-3.857.326-1.558.433-3.17.379-4.76zm-11.987.38c-.469.322-.978.574-1.468.858-.997.579-1.955 1.256-2.929 1.879-.253.161-2.158 1.099-2.158 1.099.026-.807.008-1.545-.02-2.317-.029-.81.007-1.62-.006-2.43-.008-.483-.004-4.343-.005-5.094v-1.3c.243.158.579.32.817.486.448.31.889.628 1.333.946.466.332.965.599 1.456.887.99.577 1.803 1.397 2.819 1.933.794.419 1.531.913 2.293 1.386-.056-.036-1.707 1.373-2.132 1.667z" fill="#515151"/></svg>