<svg width="16" height="30" viewBox="0 0 16 30" fill="none" xmlns="http://www.w3.org/2000/svg">
<path d="M7.99992 0C10.071 0 11.7499 1.67895 11.7499 3.75C11.7499 5.82105 10.071 7.5 7.99992 7.5C5.92887 7.5 4.24992 5.82105 4.24992 3.75C4.24992 1.67895 5.92887 0 7.99992 0ZM14.9892 20.7527L12.1767 9.50268C12.1006 9.19843 11.925 8.92834 11.6778 8.73534C11.4306 8.54234 11.126 8.4375 10.8124 8.4375H10.1468C8.81607 9.04939 7.24113 9.07582 5.85305 8.4375H5.18742C4.87381 8.4375 4.5692 8.54234 4.32202 8.73534C4.07483 8.92834 3.89925 9.19843 3.82318 9.50268L1.01068 20.7527C0.789082 21.639 1.45986 22.5 2.37492 22.5H5.65617V28.5938C5.65617 29.3704 6.28576 30 7.06242 30H8.93742C9.71408 30 10.3437 29.3704 10.3437 28.5938V22.5H13.6249C14.5385 22.5 15.2111 21.6404 14.9892 20.7527Z" fill="black"/>
</svg>
