<svg width="330" height="60" xmlns="http://www.w3.org/2000/svg">
 <mask height="52" width="196" y="1" x="70" maskUnits="userSpaceOnUse" id="mask0_414_401">
  <path id="svg_1" fill="white" d="m89.1814,13.7548c3.498,0 6.3337,-2.8553 6.3337,-6.3774c0,-3.52215 -2.8357,-6.3774 -6.3337,-6.3774c-3.498,0 -6.3337,2.85525 -6.3337,6.3774c0,3.5221 2.8357,6.3774 6.3337,6.3774z"/>
  <path id="svg_2" fill="white" d="m114.601,13.7548c3.498,0 6.334,-2.8553 6.334,-6.3774c0,-3.52215 -2.836,-6.3774 -6.334,-6.3774c-3.498,0 -6.333,2.85525 -6.333,6.3774c0,3.5221 2.835,6.3774 6.333,6.3774z"/>
  <path id="svg_3" fill="white" d="m130.643,52.0713c-1.299,0.7528 -2.82,1.0204 -4.295,0.7557c-1.475,-0.2646 -2.811,-1.0446 -3.772,-2.2027l-7.841,-13.6797l-0.467,-0.813c-0.158,-0.275 -0.343,-0.5336 -0.552,-0.772c-0.71,-0.8004 -1.672,-1.33 -2.724,-1.4998c-1.053,-0.1698 -2.131,0.0306 -3.054,0.5674l-0.096,0.0559c-0.994,0.5736 -1.741,1.4974 -2.098,2.5931c-0.357,1.0957 -0.299,2.2858 0.164,3.3405c0.063,0.1445 0.133,0.2852 0.212,0.4215l1.689,2.9462c0.453,0.9947 0.649,2.0886 0.57,3.1802c-0.078,1.0915 -0.43,2.1453 -1.021,3.0636c-0.591,0.9182 -1.403,1.6712 -2.361,2.1891c-0.958,0.5178 -2.029,0.7836 -3.116,0.7729c-1.087,-0.0108 -2.1537,-0.2978 -3.101,-0.8345c-0.9472,-0.5367 -1.7445,-1.3056 -2.3177,-2.2354c-0.5733,-0.9299 -0.904,-1.9904 -0.9614,-3.0833c-0.0574,-1.0929 0.1603,-2.1826 0.6329,-3.1682l0.0222,-0.0447l1.6223,-2.827c0.0519,-0.0932 0.1037,-0.1864 0.1482,-0.2797c0.5118,-1.0613 0.6054,-2.2784 0.2618,-3.4064c-0.3437,-1.1279 -1.0989,-2.0829 -2.1138,-2.6726l-0.0259,0c-0.5269,-0.3069 -1.1087,-0.5062 -1.7122,-0.5864c-0.6034,-0.0803 -1.2167,-0.0399 -1.8046,0.1188c-0.5879,0.1586 -1.1391,0.4324 -1.6218,0.8058c-0.4827,0.3733 -0.8876,0.8388 -1.1915,1.3699l-0.4778,0.8689l0,-0.0261l-7.3374,12.7511c-0.8458,1.4753 -2.239,2.5518 -3.8731,2.9928c-1.6341,0.441 -3.3753,0.2103 -4.8404,-0.6413c-1.4652,-0.8517 -2.5344,-2.2545 -2.9723,-3.8998c-0.438,-1.6454 -0.2089,-3.3986 0.6369,-4.8738l12.8045,-22.3359c0.7821,-1.3735 2.0446,-2.404 3.541,-2.8903c0.1333,-0.0448 0.2667,-0.0858 0.4,-0.1194c0.2536,-0.066 0.5109,-0.117 0.7704,-0.1529c0.2822,-0.0404 0.5669,-0.0603 0.8519,-0.0597c1.1203,-0.0016 2.2211,0.2945 3.1914,0.8583c0.9703,0.5638 1.7757,1.3754 2.3349,2.3528l7.2005,12.5572l6.923,-12.0985l0.266,-0.4661c0.557,-0.9731 1.358,-1.7819 2.322,-2.3454c0.965,-0.5636 2.06,-0.8621 3.175,-0.8657l0.03,0c0.265,0.0006 0.529,0.018 0.792,0.0522l0.371,0.0559l0.329,0.0709c0.839,0.2047 1.628,0.579 2.319,1.1002c0.691,0.5213 1.269,1.1785 1.7,1.9319l0.267,0.4661l12.541,21.8697c0.419,0.7307 0.69,1.5373 0.799,2.3736c0.108,0.8362 0.053,1.6859 -0.165,2.5005c-0.217,0.8145 -0.592,1.578 -1.102,2.2467c-0.511,0.6688 -1.147,1.2298 -1.873,1.6509z"/>
  <path id="svg_4" fill="white" d="m148.192,46.5145c0.241,0.0732 0.49,0.1232 0.741,0.1492c0.244,0.0223 0.485,0.0335 0.74,0.0335c1.181,0.0004 2.338,-0.3386 3.334,-0.9771c0.496,-0.3121 0.941,-0.6982 1.322,-1.1449l1.13,-1.3203l2.919,2.9575c0.21,0.2083 0.377,0.4567 0.492,0.7308c0.114,0.274 0.172,0.5682 0.172,0.8654c0,0.2972 -0.058,0.5914 -0.172,0.8655c-0.115,0.274 -0.282,0.5225 -0.492,0.7307c-0.174,0.1753 -0.371,0.3432 -0.541,0.5035c-0.745,0.6536 -1.564,1.2158 -2.441,1.6746c-0.873,0.4601 -1.798,0.8108 -2.756,1.0442c-2.603,0.6347 -5.339,0.4219 -7.815,-0.6079c-1.485,-0.6235 -2.833,-1.536 -3.967,-2.6852c-1.151,-1.1779 -2.06,-2.5717 -2.678,-4.1025c-0.666,-1.6579 -0.999,-3.4327 -0.978,-5.2212c-0.022,-1.8225 0.31,-3.6318 0.978,-5.3257c0.593,-1.5151 1.486,-2.8933 2.624,-4.051c1.137,-1.1577 2.497,-2.071 3.995,-2.6845c1.536,-0.6313 3.182,-0.9507 4.841,-0.9398c1.007,-0.0003 2.009,0.1249 2.985,0.373c0.962,0.2392 1.893,0.5936 2.771,1.0554c0.879,0.4628 1.701,1.0287 2.448,1.6857c0.597,0.5245 0.966,1.263 1.03,2.0579c0.064,0.7949 -0.184,1.5835 -0.689,2.1975l-9.993,12.1357zm3.193,-12.9189c-0.276,-0.1037 -0.564,-0.1738 -0.856,-0.2089c-0.292,-0.0303 -0.585,-0.0453 -0.878,-0.0447c-0.824,-0.0054 -1.641,0.1544 -2.404,0.4699c-0.739,0.3048 -1.406,0.7622 -1.959,1.3426c-0.57,0.6062 -1.016,1.3197 -1.311,2.0997c-0.33,0.8842 -0.492,1.8229 -0.478,2.7673c0,0.2275 0,0.4885 0.033,0.7794c0.034,0.2909 0.063,0.5856 0.115,0.8839c0.052,0.2984 0.119,0.5818 0.193,0.8578c0.067,0.2601 0.167,0.5107 0.296,0.7459l7.249,-9.6929z"/>
  <path id="svg_5" fill="white" d="m172.508,46.5144c0.242,0.0736 0.49,0.1236 0.741,0.1492c0.241,0.0224 0.485,0.0336 0.741,0.0336c0.593,0.0015 1.183,-0.0839 1.752,-0.2536c0.559,-0.1648 1.093,-0.4084 1.585,-0.7235c0.495,-0.3139 0.94,-0.6998 1.322,-1.145l1.13,-1.3202l2.93,2.9836c0.207,0.2078 0.371,0.4549 0.484,0.7269c0.112,0.272 0.17,0.5636 0.17,0.8581c0,0.2945 -0.058,0.5861 -0.17,0.8581c-0.113,0.272 -0.277,0.519 -0.484,0.7269c-0.182,0.179 -0.37,0.3506 -0.556,0.5147c-0.743,0.6535 -1.561,1.2157 -2.437,1.6745c-0.873,0.4596 -1.798,0.8103 -2.756,1.0443c-2.604,0.6345 -5.342,0.4216 -7.819,-0.6079c-1.484,-0.6228 -2.831,-1.5354 -3.963,-2.6853c-1.153,-1.1758 -2.063,-2.5702 -2.678,-4.1024c-0.669,-1.6572 -1.003,-3.4324 -0.981,-5.2212c-0.023,-1.8229 0.31,-3.6326 0.981,-5.3257c0.595,-1.519 1.491,-2.9003 2.633,-4.0601c1.141,-1.1598 2.505,-2.0738 4.008,-2.6866c1.538,-0.6318 3.184,-0.9512 4.845,-0.9398c1.007,0.0001 2.009,0.1253 2.985,0.3729c0.961,0.24 1.89,0.5943 2.767,1.0555c0.881,0.4626 1.704,1.0284 2.452,1.6857c0.597,0.5245 0.967,1.263 1.03,2.0579c0.064,0.7949 -0.183,1.5835 -0.689,2.1974l-10.023,12.132zm3.189,-12.9189c-0.274,-0.1033 -0.56,-0.1734 -0.852,-0.2088c-0.291,-0.0304 -0.584,-0.0453 -0.877,-0.0448c-0.825,-0.0053 -1.642,0.1544 -2.404,0.4699c-0.74,0.304 -1.407,0.7615 -1.96,1.3427c-0.57,0.6061 -1.015,1.3196 -1.311,2.0996c-0.33,0.8842 -0.492,1.8229 -0.478,2.7673c0,0.2275 0,0.4886 0.034,0.7795c0.022,0.2965 0.06,0.5915 0.115,0.8839c0.049,0.289 0.113,0.5754 0.192,0.8577c0.066,0.2607 0.165,0.5115 0.296,0.7459l7.245,-9.6929z"/>
  <path id="svg_6" fill="white" d="m199.537,52.5265c-1.458,0.0096 -2.901,-0.2837 -4.241,-0.8615c-2.619,-1.1251 -4.705,-3.2256 -5.823,-5.8627c-0.571,-1.3485 -0.861,-2.8006 -0.852,-4.2665l0,-7.2986l-3.033,0l0,-6.2394l3.033,0l0,-3.5803c0,-1.6526 0.651,-3.2377 1.81,-4.408c1.159,-1.1703 2.731,-1.8302 4.372,-1.8352l0,9.8235l9.434,0l0,6.2394l-9.434,0l0,7.2986c-0.003,0.6225 0.117,1.2394 0.351,1.8154c0.235,0.576 0.58,1.0997 1.016,1.5411c0.432,0.4335 0.943,0.7803 1.504,1.0219c0.585,0.2511 1.216,0.3781 1.852,0.3729l4.715,0l0,3.9906c0,0.5934 -0.234,1.1626 -0.651,1.5823c-0.417,0.4196 -0.982,0.6554 -1.571,0.6554l-2.482,0.0111z"/>
  <path id="svg_7" fill="white" d="m215.078,21.2735c0.004,0.5609 -0.109,1.1163 -0.334,1.6298c-0.212,0.4945 -0.518,0.9429 -0.9,1.3202c-0.386,0.3785 -0.838,0.6819 -1.333,0.8951c-0.515,0.219 -1.069,0.3318 -1.628,0.3318c-0.559,0 -1.113,-0.1128 -1.628,-0.3318c-0.998,-0.4202 -1.795,-1.2146 -2.222,-2.2153c-0.218,-0.5135 -0.33,-1.066 -0.33,-1.6242c0,-0.5582 0.112,-1.1107 0.33,-1.6242c0.418,-1.0123 1.217,-1.8169 2.222,-2.2377c0.515,-0.2215 1.068,-0.3357 1.628,-0.3357c0.56,0 1.113,0.1142 1.628,0.3357c0.496,0.2105 0.948,0.5129 1.333,0.8914c0.384,0.3801 0.69,0.8325 0.9,1.3314c0.224,0.515 0.338,1.0715 0.334,1.6335zm-3.334,31.253l-4.007,0l0,-24.5772l6.267,0l0,22.3097c0,0.6008 -0.237,1.1769 -0.659,1.6021c-0.421,0.4251 -0.993,0.6645 -1.59,0.6654l-0.011,0z"/>
  <path id="svg_8" fill="white" d="m222.73,52.5263l-3.986,0l0,-24.5772c0.472,0 0.939,0.1022 1.368,0.2998c0.43,0.1975 0.812,0.4857 1.121,0.8451l1.067,1.2419c2.02,-1.8488 4.652,-2.8716 7.382,-2.868c1.449,-0.0084 2.884,0.2849 4.215,0.8616c1.296,0.5558 2.473,1.3587 3.467,2.3644c0.992,1.0101 1.784,2.2011 2.333,3.5095c0.573,1.3518 0.865,2.8078 0.856,4.2777l0,11.7852c0,0.5994 -0.237,1.1742 -0.658,1.5981c-0.42,0.4238 -0.991,0.6619 -1.587,0.6619l-3.978,0l0,-14.0452c0,-0.6268 -0.126,-1.2472 -0.37,-1.8237c-0.473,-1.1301 -1.364,-2.0304 -2.485,-2.51c-0.568,-0.2485 -1.181,-0.3754 -1.801,-0.3729c-0.636,-0.0035 -1.266,0.1233 -1.852,0.3729c-0.562,0.2325 -1.073,0.5748 -1.503,1.007c-0.427,0.4281 -0.767,0.9345 -1.004,1.4918c-0.246,0.576 -0.372,1.1967 -0.37,1.8237l0,11.7926c0.003,0.2954 -0.052,0.5886 -0.161,0.8626c-0.11,0.2741 -0.273,0.5235 -0.479,0.734c-0.205,0.2104 -0.451,0.3778 -0.721,0.4923c-0.271,0.1145 -0.561,0.174 -0.854,0.1749z"/>
  <path id="svg_9" fill="white" d="m258.225,52.5004l-14.219,0c0,-0.8197 0.16,-1.6314 0.472,-2.3886c0.312,-0.7573 0.768,-1.4452 1.344,-2.0247c0.576,-0.5794 1.259,-1.0389 2.012,-1.3523c0.752,-0.3133 1.558,-0.4743 2.372,-0.4738l8.019,0c0.411,-0.001 0.805,-0.1655 1.095,-0.4575c0.291,-0.292 0.455,-0.688 0.457,-1.1015c0.023,-0.175 -0.008,-0.3529 -0.09,-0.5092c-0.081,-0.1563 -0.209,-0.2833 -0.365,-0.3635c-0.352,-0.1491 -0.731,-0.2203 -1.112,-0.2088l-6.456,0c-1.041,0.0082 -2.073,-0.2027 -3.029,-0.6191c-0.922,-0.3961 -1.759,-0.9686 -2.463,-1.6857c-0.701,-0.7175 -1.262,-1.5614 -1.652,-2.4876c-0.399,-0.9677 -0.604,-2.005 -0.604,-3.0526c0,-1.0476 0.205,-2.0849 0.604,-3.0525c0.388,-0.9244 0.948,-1.7651 1.652,-2.4764c0.705,-0.7103 1.542,-1.2753 2.463,-1.6634c0.958,-0.4092 1.989,-0.6161 3.029,-0.6079l6.405,0c1.643,0 3.219,0.6574 4.381,1.8275c1.162,1.1701 1.815,2.7571 1.815,4.4119l-12.593,0c-0.41,0.002 -0.803,0.1669 -1.093,0.4588c-0.29,0.2919 -0.453,0.6873 -0.455,1.1002c-0.004,0.2106 0.034,0.4199 0.113,0.6154c0.078,0.1954 0.194,0.3729 0.342,0.5221c0.142,0.1523 0.315,0.2729 0.506,0.3538c0.192,0.081 0.398,0.1205 0.605,0.1161l6.471,0c1.027,-0.0072 2.047,0.1761 3.008,0.5407c0.908,0.3334 1.745,0.8399 2.463,1.4918c0.726,0.6692 1.305,1.485 1.697,2.3942c0.393,0.9093 0.591,1.8917 0.581,2.883c0.009,1.0454 -0.201,2.081 -0.615,3.0396c-0.397,0.9221 -0.961,1.7618 -1.663,2.4763c-0.717,0.726 -1.569,1.3016 -2.508,1.6934c-0.939,0.3918 -1.946,0.592 -2.963,0.5891l-0.026,0.0112z"/>
 </mask>
 <defs>
  <linearGradient y2="-0.037221" x2="0.985274" y1="1" x1="0" id="paint0_linear_414_401">
   <stop stop-color="#50F2C4"/>
   <stop stop-color="#26D0E3" offset="0.396745"/>
   <stop stop-color="#757AFF" offset="1"/>
  </linearGradient>
 </defs>
 <g>
  <title>background</title>
  <rect fill="none" id="canvas_background" height="62" width="332" y="-1" x="-1"/>
 </g>
 <g>
  <title>Layer 1</title>
  <g stroke="null" id="svg_10" mask="url(#mask0_414_401)">
   <rect stroke="null" id="svg_11" fill="url(#paint0_linear_414_401)" height="51.999997" width="266.000063" y="1" x="28.999969"/>
  </g>
 </g>
</svg>