<svg width="211" height="60" viewBox="0 0 211 60" fill="none" xmlns="http://www.w3.org/2000/svg">
<mask id="mask0_8_37" style="mask-type:luminance" maskUnits="userSpaceOnUse" x="0" y="0" width="211" height="60">
<path d="M211 0H0V60H211V0Z" fill="white"/>
</mask>
<g mask="url(#mask0_8_37)">
<mask id="mask1_8_37" style="mask-type:luminance" maskUnits="userSpaceOnUse" x="1" y="1" width="209" height="58">
<path d="M20.6497 15.7171C24.4147 15.7171 27.4677 12.4225 27.4677 8.35854C27.4677 4.29452 24.4147 1 20.6497 1C16.8835 1 13.831 4.29452 13.831 8.35854C13.831 12.4225 16.8835 15.7171 20.6497 15.7171Z" fill="white"/>
<path d="M48.818 15.7171C52.583 15.7171 55.636 12.4225 55.636 8.35854C55.636 4.29452 52.583 1 48.818 1C45.0518 1 42 4.29452 42 8.35854C42 12.4225 45.0518 15.7171 48.818 15.7171Z" fill="white"/>
<path d="M66.2838 56.5983C64.8857 57.4669 63.2484 57.7758 61.6606 57.4703C60.0728 57.165 58.6336 56.265 57.5998 54.9287L49.1586 39.1444L48.6553 38.2064C48.4855 37.8891 48.2863 37.5906 48.0612 37.3157C47.2973 36.3921 46.2612 35.781 45.1296 35.5851C43.9956 35.3891 42.8345 35.6204 41.8408 36.2397L41.7383 36.3043C40.6679 36.9661 39.864 38.032 39.4797 39.2963C39.0955 40.5605 39.1579 41.9337 39.6566 43.1507C39.7237 43.3175 39.7992 43.4798 39.8841 43.6371L41.7029 47.0366C42.1897 48.1843 42.4007 49.4464 42.3159 50.706C42.2322 51.9654 41.8538 53.1814 41.2172 54.2409C40.5807 55.3004 39.7061 56.1692 38.6758 56.7668C37.6444 57.3643 36.4916 57.6709 35.321 57.6586C34.1505 57.6461 33.0024 57.315 31.9828 56.6958C30.9631 56.0764 30.105 55.1892 29.4873 54.1165C28.8708 53.0435 28.5148 51.8198 28.4524 50.5588C28.3911 49.2978 28.6245 48.0404 29.1337 46.9031L29.1573 46.8516L30.9042 43.5896C30.9596 43.4821 31.0162 43.3745 31.0633 43.2669C31.615 42.0423 31.7152 40.638 31.3451 39.3364C30.9761 38.035 30.1628 36.9331 29.07 36.2526H29.0417C28.4748 35.8985 27.8488 35.6686 27.1993 35.5761C26.5498 35.4834 25.8885 35.53 25.2567 35.7131C24.6237 35.8962 24.0296 36.2121 23.5098 36.6429C22.9911 37.0736 22.555 37.6108 22.2273 38.2236L21.7133 39.2262V39.196L13.8143 53.9088C12.9037 55.6111 11.4039 56.8532 9.64475 57.3621C7.88556 57.8709 6.0112 57.6047 4.43389 56.6221C2.85658 55.6393 1.70563 54.0208 1.23412 52.1223C0.762612 50.2238 1.00932 48.2009 1.9198 46.4987L15.7042 20.7266C16.5456 19.1418 17.9047 17.9526 19.5161 17.3916C19.6599 17.3398 19.8037 17.2925 19.9464 17.2538C20.2198 17.1776 20.4968 17.1188 20.7762 17.0773C21.0803 17.0308 21.3868 17.0078 21.6933 17.0085C22.8992 17.0067 24.0838 17.3483 25.1294 17.9988C26.1738 18.6493 27.0402 19.5859 27.6425 20.7137L35.3941 35.2026L42.8463 21.2429L43.1327 20.7051C43.7327 19.5823 44.5956 18.649 45.6329 17.9988C46.6714 17.3486 47.8502 17.0041 49.0513 17H49.0832C49.3684 17.0007 49.6525 17.0207 49.9354 17.0602L50.335 17.1246L50.6898 17.2065C51.5928 17.4426 52.4415 17.8745 53.1853 18.476C53.9303 19.0775 54.5515 19.8357 55.0159 20.7051L55.3035 21.2429L68.804 46.4771C69.2554 47.3203 69.5466 48.2509 69.6645 49.2159C69.78 50.1808 69.7211 51.1612 69.4865 52.1011C69.2531 53.0409 68.8488 53.9218 68.3006 54.6935C67.7501 55.4651 67.0653 56.1124 66.2838 56.5983Z" fill="white"/>
<path d="M84.1759 51.5167C84.4352 51.6012 84.704 51.6589 84.9739 51.6889C85.2368 51.7146 85.4961 51.7275 85.7708 51.7275C87.0415 51.728 88.2875 51.3369 89.359 50.6001C89.8929 50.24 90.3727 49.7945 90.7829 49.2791L91.9994 47.7557L95.142 51.1682C95.3671 51.4085 95.5475 51.6952 95.6713 52.0113C95.7938 52.3275 95.8563 52.667 95.8563 53.01C95.8563 53.3529 95.7938 53.6923 95.6713 54.0086C95.5475 54.3247 95.3671 54.6115 95.142 54.8517C94.9546 55.0539 94.7424 55.2477 94.5597 55.4327C93.7569 56.1868 92.8752 56.8355 91.931 57.3649C90.9915 57.8958 89.9955 58.3005 88.9641 58.5697C86.1621 59.302 83.2164 59.0566 80.5512 57.8683C78.9528 57.1489 77.5017 56.096 76.2805 54.77C75.0416 53.4109 74.0633 51.8027 73.3972 50.0363C72.6806 48.1234 72.3222 46.0755 72.3446 44.0119C72.321 41.9091 72.6782 39.8214 73.3972 37.8669C74.0361 36.1187 74.998 34.5285 76.2227 33.1926C77.4463 31.8568 78.9103 30.803 80.5229 30.0952C82.1767 29.3667 83.9484 28.9982 85.7342 29.0107C86.8187 29.0104 87.8973 29.1549 88.9487 29.4412C89.9837 29.7172 90.9856 30.1261 91.931 30.6589C92.8776 31.1929 93.7628 31.8458 94.5668 32.604C95.2092 33.2092 95.6064 34.0613 95.676 34.9785C95.7443 35.8956 95.4779 36.8055 94.9333 37.514L84.1759 51.5167ZM87.6132 36.6104C87.3161 36.4907 87.0061 36.4098 86.6914 36.3692C86.3778 36.3344 86.0619 36.317 85.7472 36.3177C84.8596 36.3115 83.9802 36.4958 83.1586 36.8599C82.363 37.2116 81.6451 37.7394 81.0498 38.409C80.4357 39.1085 79.9559 39.9318 79.6388 40.8318C79.2828 41.852 79.1084 42.9352 79.1237 44.0248C79.1237 44.2873 79.1237 44.5884 79.1591 44.9241C79.1956 45.2598 79.2274 45.5998 79.2828 45.944C79.3394 46.2883 79.4113 46.6153 79.4915 46.9338C79.5634 47.2339 79.6706 47.523 79.8097 47.7945L87.6132 36.6104Z" fill="white"/>
<path d="M110.353 51.5167C110.613 51.6016 110.881 51.6592 111.151 51.6887C111.41 51.7147 111.673 51.7276 111.948 51.7276C112.587 51.7293 113.222 51.6308 113.835 51.4349C114.436 51.2447 115.011 50.9638 115.541 50.6001C116.073 50.238 116.553 49.7926 116.963 49.279L118.18 47.7557L121.334 51.1983C121.557 51.4381 121.734 51.7231 121.855 52.037C121.977 52.3509 122.039 52.6873 122.039 53.0271C122.039 53.3669 121.977 53.7034 121.855 54.0172C121.734 54.3311 121.557 54.6161 121.334 54.8559C121.139 55.0625 120.936 55.2605 120.735 55.4498C119.936 56.2039 119.056 56.8526 118.113 57.3819C117.173 57.9123 116.177 58.3169 115.146 58.5869C112.343 59.319 109.394 59.0734 106.728 57.8855C105.131 57.1668 103.681 56.1139 102.462 54.7871C101.221 53.4304 100.241 51.8214 99.5789 50.0536C98.8586 48.1414 98.4991 46.0931 98.5227 44.0291C98.4979 41.9257 98.8563 39.8376 99.5789 37.8841C100.219 36.1313 101.184 34.5376 102.414 33.1993C103.642 31.8611 105.11 30.8065 106.728 30.0994C108.384 29.3704 110.156 29.0018 111.944 29.015C113.027 29.0151 114.107 29.1595 115.157 29.4453C116.192 29.7222 117.192 30.131 118.136 30.6631C119.085 31.1969 119.97 31.8498 120.775 32.6082C121.418 33.2134 121.816 34.0655 121.885 34.9827C121.953 35.8999 121.688 36.8099 121.143 37.5182L110.353 51.5167ZM113.785 36.6102C113.491 36.491 113.183 36.4101 112.868 36.3693C112.556 36.3342 112.24 36.317 111.924 36.3175C111.036 36.3114 110.157 36.4957 109.337 36.8598C108.54 37.2105 107.822 37.7384 107.227 38.409C106.613 39.1084 106.134 39.9317 105.816 40.8317C105.46 41.8519 105.285 42.935 105.301 44.0247C105.301 44.2872 105.301 44.5885 105.337 44.9241C105.361 45.2662 105.402 45.6067 105.461 45.944C105.514 46.2774 105.582 46.608 105.668 46.9337C105.739 47.2345 105.845 47.5238 105.987 47.7943L113.785 36.6102Z" fill="white"/>
<path d="M139.451 58.4537C137.881 58.4647 136.327 58.1263 134.885 57.4596C132.066 56.1614 129.82 53.7378 128.617 50.695C128.001 49.1389 127.689 47.4635 127.698 45.772V37.3506H124.434V30.1513H127.698V26.0201C127.698 24.1133 128.4 22.2843 129.647 20.934C130.895 19.5836 132.588 18.8222 134.354 18.8164V30.1513H144.51V37.3506H134.354V45.772C134.351 46.4903 134.48 47.2021 134.732 47.8667C134.984 48.5313 135.357 49.1357 135.826 49.645C136.29 50.1451 136.841 50.5453 137.444 50.824C138.075 51.1137 138.754 51.2603 139.439 51.2543H144.515V55.8588C144.515 56.5435 144.262 57.2003 143.813 57.6846C143.364 58.1687 142.756 58.4409 142.122 58.4409L139.451 58.4537Z" fill="white"/>
<path d="M156.181 22.3925C156.185 23.0397 156.063 23.6806 155.821 24.273C155.593 24.8436 155.264 25.3611 154.852 25.7963C154.436 26.2331 153.95 26.5831 153.417 26.8291C152.863 27.0819 152.266 27.212 151.665 27.212C151.063 27.212 150.466 27.0819 149.912 26.8291C148.837 26.3444 147.979 25.4277 147.521 24.273C147.285 23.6806 147.165 23.043 147.165 22.399C147.165 21.755 147.285 21.1174 147.521 20.525C147.97 19.3569 148.83 18.4285 149.912 17.9429C150.466 17.6874 151.062 17.5556 151.665 17.5556C152.267 17.5556 152.863 17.6874 153.417 17.9429C153.951 18.1859 154.438 18.5348 154.852 18.9715C155.265 19.4101 155.595 19.9321 155.821 20.5077C156.062 21.102 156.185 21.7441 156.181 22.3925ZM152.592 58.4537H148.277V30.0954H155.025V55.8373C155.025 56.5306 154.769 57.1953 154.315 57.6859C153.862 58.1764 153.246 58.4527 152.603 58.4537H152.592Z" fill="white"/>
<path d="M164.418 58.4534H160.128V30.095C160.636 30.095 161.138 30.213 161.6 30.441C162.063 30.6689 162.474 31.0015 162.807 31.4162L163.955 32.849C166.13 30.7159 168.964 29.5357 171.902 29.5399C173.462 29.5301 175.007 29.8686 176.439 30.5341C177.835 31.1754 179.102 32.1018 180.172 33.2621C181.24 34.4277 182.093 35.802 182.683 37.3116C183.301 38.8713 183.614 40.5513 183.605 42.2474V55.8457C183.605 56.5374 183.35 57.2006 182.897 57.6897C182.445 58.1787 181.83 58.4534 181.189 58.4534H176.906V42.2474C176.906 41.5241 176.771 40.8083 176.508 40.1431C175.998 38.8392 175.039 37.8004 173.833 37.2469C173.221 36.9603 172.561 36.8138 171.894 36.8167C171.209 36.8127 170.531 36.9589 169.899 37.2469C169.295 37.5152 168.744 37.9102 168.282 38.4089C167.823 38.9028 167.456 39.4872 167.201 40.1302C166.936 40.7949 166.801 41.511 166.803 42.2345V55.8414C166.806 56.1821 166.746 56.5205 166.63 56.8366C166.511 57.1529 166.336 57.4407 166.113 57.6836C165.893 57.9263 165.629 58.1195 165.338 58.2516C165.045 58.3837 164.734 58.4524 164.418 58.4534Z" fill="white"/>
<path d="M201.306 58.2985H186C186 57.3527 186.172 56.4161 186.508 55.5424C186.844 54.6686 187.334 53.8749 187.954 53.2062C188.574 52.5377 189.31 52.0075 190.121 51.6459C190.93 51.2844 191.798 51.0986 192.674 51.0992H201.306C201.75 51.0981 202.174 50.9082 202.485 50.5713C202.799 50.2344 202.975 49.7775 202.978 49.3003C203.003 49.0984 202.968 48.8931 202.881 48.7128C202.794 48.5325 202.656 48.386 202.487 48.2934C202.109 48.1214 201.701 48.0392 201.291 48.0525H194.341C193.22 48.062 192.108 47.8186 191.079 47.3381C190.087 46.8811 189.186 46.2205 188.428 45.3931C187.674 44.5652 187.069 43.5915 186.649 42.5228C186.22 41.4062 186 40.2093 186 39.0005C186 37.7918 186.22 36.5949 186.649 35.4784C187.068 34.4119 187.67 33.4418 188.428 32.621C189.187 31.8015 190.088 31.1496 191.079 30.7017C192.111 30.2296 193.221 29.9909 194.341 30.0003H201.236C203.005 30.0003 204.701 30.7589 205.952 32.109C207.203 33.4591 207.906 35.2902 207.906 37.1996H194.349C193.908 37.202 193.485 37.3922 193.173 37.7291C192.86 38.0659 192.685 38.5221 192.682 38.9985C192.679 39.2415 192.719 39.483 192.804 39.7085C192.889 39.934 193.014 40.1388 193.173 40.311C193.325 40.4867 193.511 40.6258 193.717 40.7192C193.924 40.8127 194.145 40.8582 194.368 40.8531H201.335C202.44 40.8449 203.539 41.0563 204.573 41.477C205.55 41.8617 206.452 42.4462 207.225 43.1983C208.006 43.9705 208.629 44.9119 209.051 45.9609C209.474 47.01 209.687 48.1436 209.677 49.2874C209.686 50.4937 209.46 51.6886 209.014 52.7947C208.588 53.8586 207.981 54.8275 207.225 55.652C206.453 56.4896 205.536 57.1538 204.524 57.6058C203.514 58.058 202.43 58.2889 201.335 58.2856L201.306 58.2985Z" fill="white"/>
</mask>
<g mask="url(#mask1_8_37)">
<path d="M211 0H0V60H211V0Z" fill="url(#paint0_linear_8_37)" stroke="black"/>
</g>
</g>
<defs>
<linearGradient id="paint0_linear_8_37" x1="0" y1="60" x2="29.8043" y2="-50.3382" gradientUnits="userSpaceOnUse">
<stop stop-color="#50F2C4"/>
<stop offset="0.396745" stop-color="#26D0E3"/>
<stop offset="1" stop-color="#757AFF"/>
</linearGradient>
</defs>
</svg>
