<svg width="212" height="60" viewBox="0 0 212 60" fill="none" xmlns="http://www.w3.org/2000/svg">
<g clip-path="url(#clip0_8_19)">
<mask id="mask0_8_19" style="mask-type:luminance" maskUnits="userSpaceOnUse" x="0" y="0" width="212" height="60">
<path d="M212 0H0V60H212V0Z" fill="white"/>
</mask>
<g mask="url(#mask0_8_19)">
<mask id="mask1_8_19" style="mask-type:luminance" maskUnits="userSpaceOnUse" x="0" y="0" width="212" height="60">
<path d="M20.7476 14.7171C24.5304 14.7171 27.5979 11.4225 27.5979 7.35854C27.5979 3.29452 24.5304 0 20.7476 0C16.9636 0 13.8965 3.29452 13.8965 7.35854C13.8965 11.4225 16.9636 14.7171 20.7476 14.7171Z" fill="white"/>
<path d="M48.2424 14.7171C52.0252 14.7171 55.0927 11.4225 55.0927 7.35854C55.0927 3.29452 52.0252 0 48.2424 0C44.4584 0 41.3921 3.29452 41.3921 7.35854C41.3921 11.4225 44.4584 14.7171 48.2424 14.7171Z" fill="white"/>
<path d="M65.5932 58.9284C64.1885 59.797 62.5434 60.1059 60.9481 59.8004C59.3528 59.4951 57.9067 58.5951 56.868 57.2588L48.3869 41.4745L47.8811 40.5365C47.7106 40.2191 47.5104 39.9207 47.2842 39.6457C46.5168 38.7222 45.4757 38.1111 44.3387 37.9151C43.1994 37.7192 42.0328 37.9505 41.0344 38.5698L40.9313 38.6343C39.8559 39.2962 39.0482 40.3621 38.6621 41.6264C38.276 42.8906 38.3388 44.2638 38.8398 45.4808C38.9073 45.6476 38.9831 45.8099 39.0683 45.9671L40.8958 49.3666C41.3849 50.5143 41.5969 51.7765 41.5117 53.036C41.4276 54.2955 41.0474 55.5114 40.4078 56.5709C39.7683 57.6305 38.8895 58.4993 37.8544 59.0968C36.8181 59.6943 35.6598 60.001 34.4837 59.9887C33.3076 59.9762 32.1541 59.6451 31.1296 59.0258C30.1051 58.4065 29.2429 57.5193 28.6223 56.4465C28.0029 55.3736 27.6452 54.1499 27.5825 52.8889C27.5209 51.6278 27.7554 50.3705 28.267 49.2332L28.2907 49.1817L30.0459 45.9197C30.1016 45.8122 30.1584 45.7046 30.2058 45.5969C30.7601 44.3724 30.8608 42.968 30.4889 41.6665C30.1182 40.3651 29.301 39.2632 28.2031 38.5827H28.1746C27.605 38.2286 26.9761 37.9987 26.3235 37.9062C25.6709 37.8135 25.0065 37.8601 24.3717 38.0432C23.7357 38.2262 23.1388 38.5422 22.6165 38.9729C22.0953 39.4037 21.6571 39.9409 21.3279 40.5537L20.8115 41.5562V41.5261L12.875 56.2389C11.9601 57.9412 10.4533 59.1833 8.68572 59.6922C6.91819 60.2009 5.03495 59.9348 3.45016 58.9522C1.86538 57.9694 0.708971 56.3509 0.235229 54.4524C-0.238513 52.5539 0.00936735 50.531 0.924163 48.8288L14.7739 23.0566C15.6193 21.4719 16.9849 20.2827 18.6039 19.7217C18.7484 19.6699 18.8928 19.6226 19.0362 19.5839C19.3109 19.5077 19.5893 19.4488 19.8699 19.4074C20.1755 19.3609 20.4834 19.3379 20.7914 19.3386C22.003 19.3368 23.1932 19.6784 24.2438 20.3289C25.2931 20.9794 26.1636 21.916 26.7688 23.0437L34.5571 37.5327L42.0446 23.573L42.3324 23.0351C42.9353 21.9123 43.8022 20.9791 44.8444 20.3289C45.8879 19.6786 47.0722 19.3342 48.2791 19.3301H48.311C48.5977 19.3308 48.8831 19.3508 49.1673 19.3903L49.5688 19.4547L49.9253 19.5366C50.8325 19.7727 51.6853 20.2046 52.4326 20.8061C53.1811 21.4076 53.8053 22.1658 54.2719 23.0351L54.5609 23.573L68.1253 48.8072C68.5789 49.6503 68.8715 50.581 68.9899 51.546C69.106 52.5109 69.0467 53.4912 68.8111 54.4312C68.5766 55.3709 68.1703 56.2519 67.6196 57.0235C67.0665 57.7952 66.3784 58.4425 65.5932 58.9284Z" fill="white"/>
<path d="M84.5748 52.5167C84.8354 52.6012 85.1054 52.6589 85.3766 52.6889C85.6408 52.7146 85.9013 52.7275 86.1773 52.7275C87.454 52.728 88.7059 52.3369 89.7824 51.6001C90.319 51.24 90.801 50.7945 91.2131 50.2791L92.4354 48.7557L95.5929 52.1682C95.8191 52.4085 96.0003 52.6952 96.1247 53.0113C96.2478 53.3275 96.3106 53.667 96.3106 54.01C96.3106 54.3529 96.2478 54.6923 96.1247 55.0086C96.0003 55.3247 95.8191 55.6115 95.5929 55.8517C95.4046 56.0539 95.1914 56.2477 95.0078 56.4327C94.2013 57.1868 93.3154 57.8355 92.3667 58.3649C91.4228 58.8958 90.422 59.3005 89.3857 59.5697C86.5705 60.302 83.6108 60.0566 80.9329 58.8683C79.327 58.1489 77.869 57.096 76.642 55.77C75.3973 54.4109 74.4143 52.8027 73.7451 51.0363C73.025 49.1234 72.665 47.0755 72.6875 45.0119C72.6638 42.9091 73.0226 40.8214 73.7451 38.8669C74.387 37.1187 75.3534 35.5285 76.584 34.1926C77.8133 32.8568 79.2843 31.803 80.9045 31.0952C82.5662 30.3667 84.3462 29.9982 86.1405 30.0107C87.2301 30.0104 88.3138 30.1549 89.3703 30.4412C90.4101 30.7172 91.4168 31.1261 92.3667 31.6589C93.3177 32.1929 94.2072 32.8458 95.0149 33.604C95.6604 34.2092 96.0595 35.0613 96.1294 35.9785C96.1981 36.8956 95.9304 37.8055 95.3833 38.514L84.5748 52.5167ZM88.0284 37.6104C87.73 37.4907 87.4185 37.4098 87.1023 37.3692C86.7872 37.3344 86.4698 37.317 86.1536 37.3177C85.2618 37.3115 84.3782 37.4958 83.5527 37.8599C82.7533 38.2116 82.032 38.7394 81.4339 39.409C80.8169 40.1085 80.3348 40.9318 80.0163 41.8318C79.6586 42.852 79.4833 43.9352 79.4987 45.0248C79.4987 45.2873 79.4987 45.5884 79.5342 45.9241C79.5709 46.2598 79.6029 46.5998 79.6586 46.944C79.7154 47.2883 79.7877 47.6153 79.8682 47.9338C79.9405 48.2339 80.0482 48.523 80.188 48.7945L88.0284 37.6104Z" fill="white"/>
<path d="M110.876 52.5167C111.138 52.6016 111.406 52.6592 111.678 52.6887C111.938 52.7147 112.202 52.7276 112.478 52.7276C113.12 52.7293 113.759 52.6308 114.374 52.4349C114.978 52.2447 115.556 51.9638 116.088 51.6001C116.623 51.238 117.106 50.7926 117.518 50.279L118.74 48.7557L121.909 52.1983C122.133 52.4381 122.311 52.7231 122.433 53.037C122.555 53.3509 122.618 53.6873 122.618 54.0271C122.618 54.3669 122.555 54.7034 122.433 55.0172C122.311 55.3311 122.133 55.6161 121.909 55.8559C121.713 56.0625 121.509 56.2605 121.308 56.4498C120.505 57.2039 119.62 57.8526 118.672 58.3819C117.728 58.9123 116.728 59.3169 115.691 59.5869C112.875 60.319 109.913 60.0734 107.234 58.8855C105.629 58.1668 104.172 57.1139 102.948 55.7871C101.701 54.4304 100.716 52.8214 100.051 51.0536C99.3272 49.1414 98.9659 47.0931 98.9896 45.0291C98.9647 42.9257 99.3248 40.8376 100.051 38.8841C100.694 37.1313 101.664 35.5376 102.899 34.1993C104.133 32.8611 105.608 31.8065 107.234 31.0994C108.898 30.3704 110.678 30.0018 112.475 30.015C113.563 30.0151 114.648 30.1595 115.703 30.4453C116.743 30.7222 117.747 31.131 118.696 31.6631C119.65 32.1969 120.539 32.8498 121.348 33.6082C121.993 34.2134 122.394 35.0655 122.462 35.9827C122.531 36.8999 122.265 37.8099 121.717 38.5182L110.876 52.5167ZM114.325 37.6102C114.029 37.491 113.719 37.4101 113.403 37.3693C113.089 37.3342 112.772 37.317 112.455 37.3175C111.563 37.3114 110.679 37.4957 109.855 37.8598C109.054 38.2105 108.333 38.7384 107.735 39.409C107.118 40.1084 106.637 40.9317 106.317 41.8317C105.96 42.8519 105.784 43.935 105.8 45.0247C105.8 45.2872 105.8 45.5885 105.836 45.9241C105.86 46.2662 105.902 46.6067 105.961 46.944C106.014 47.2774 106.083 47.608 106.169 47.9337C106.24 48.2345 106.347 48.5238 106.489 48.7943L114.325 37.6102Z" fill="white"/>
<path d="M140.112 59.4537C138.534 59.4647 136.973 59.1263 135.525 58.4596C132.692 57.1614 130.435 54.7378 129.226 51.695C128.608 50.1389 128.294 48.4635 128.304 46.772V38.3506H125.024V31.1513H128.304V27.0201C128.304 25.1133 129.008 23.2843 130.261 21.934C131.516 20.5836 133.216 19.8222 134.99 19.8164V31.1513H145.195V38.3506H134.99V46.772C134.988 47.4903 135.117 48.2021 135.371 48.8667C135.624 49.5313 135.998 50.1357 136.47 50.645C136.936 51.1451 137.489 51.5453 138.096 51.824C138.729 52.1137 139.412 52.2603 140.1 52.2543H145.2V56.8588C145.2 57.5435 144.946 58.2003 144.495 58.6846C144.044 59.1687 143.433 59.4409 142.795 59.4409L140.112 59.4537Z" fill="white"/>
<path d="M156.921 23.3925C156.925 24.0397 156.803 24.6806 156.56 25.273C156.33 25.8436 156 26.3611 155.586 26.7963C155.168 27.2331 154.679 27.5831 154.144 27.8291C153.587 28.0819 152.988 28.212 152.384 28.212C151.779 28.212 151.179 28.0819 150.623 27.8291C149.543 27.3444 148.68 26.4277 148.22 25.273C147.983 24.6806 147.862 24.043 147.862 23.399C147.862 22.755 147.983 22.1174 148.22 21.525C148.671 20.3569 149.536 19.4285 150.623 18.9429C151.179 18.6874 151.778 18.5556 152.384 18.5556C152.989 18.5556 153.587 18.6874 154.144 18.9429C154.68 19.1859 155.17 19.5348 155.586 19.9715C156.001 20.4101 156.333 20.9321 156.56 21.5077C156.802 22.102 156.925 22.7441 156.921 23.3925ZM153.315 59.4537H148.98V31.0954H155.759V56.8373C155.759 57.5306 155.502 58.1953 155.046 58.6859C154.592 59.1764 153.972 59.4527 153.327 59.4537H153.315Z" fill="white"/>
<path d="M165.197 59.4534H160.886V31.095C161.397 31.095 161.901 31.213 162.366 31.441C162.831 31.6689 163.244 32.0015 163.578 32.4162L164.732 33.849C166.917 31.7159 169.764 30.5357 172.717 30.5399C174.284 30.5301 175.837 30.8686 177.276 31.5341C178.678 32.1754 179.951 33.1018 181.026 34.2621C182.099 35.4277 182.956 36.802 183.549 38.3116C184.17 39.8713 184.485 41.5513 184.475 43.2474V56.8457C184.475 57.5374 184.219 58.2006 183.763 58.6897C183.31 59.1787 182.692 59.4534 182.047 59.4534H177.745V43.2474C177.745 42.5241 177.608 41.8083 177.344 41.1431C176.833 39.8392 175.868 38.8004 174.657 38.2469C174.042 37.9603 173.379 37.8138 172.709 37.8167C172.021 37.8127 171.34 37.9589 170.705 38.2469C170.097 38.5152 169.544 38.9102 169.08 39.4089C168.618 39.9028 168.25 40.4872 167.994 41.1302C167.727 41.7949 167.591 42.511 167.593 43.2345V56.8414C167.597 57.1821 167.537 57.5205 167.419 57.8366C167.3 58.1529 167.124 58.4407 166.901 58.6836C166.679 58.9263 166.414 59.1195 166.121 59.2516C165.828 59.3837 165.515 59.4524 165.197 59.4534Z" fill="white"/>
<path d="M203.59 59.4236H188.211C188.211 58.4777 188.384 57.5411 188.721 56.6674C189.059 55.7937 189.551 55 190.174 54.3313C190.797 53.6628 191.536 53.1325 192.351 52.7709C193.164 52.4094 194.037 52.2237 194.916 52.2242H203.59C204.035 52.2231 204.461 52.0333 204.774 51.6964C205.089 51.3594 205.267 50.9025 205.269 50.4254C205.294 50.2234 205.259 50.0182 205.172 49.8378C205.084 49.6575 204.946 49.511 204.776 49.4184C204.396 49.2464 203.986 49.1642 203.574 49.1775H196.591C195.465 49.187 194.348 48.9436 193.314 48.4631C192.317 48.0061 191.412 47.3456 190.65 46.5181C189.892 45.6902 189.285 44.7165 188.863 43.6479C188.432 42.5312 188.211 41.3344 188.211 40.1255C188.211 38.9168 188.432 37.72 188.863 36.6034C189.284 35.5369 189.889 34.5668 190.65 33.7461C191.413 32.9265 192.318 32.2746 193.314 31.8267C194.35 31.3547 195.466 31.1159 196.591 31.1253H203.518C205.296 31.1253 207 31.8839 208.257 33.234C209.514 34.5841 210.221 36.4153 210.221 38.3246H196.599C196.156 38.327 195.731 38.5172 195.417 38.8541C195.104 39.1909 194.927 39.6471 194.925 40.1235C194.921 40.3665 194.961 40.608 195.047 40.8335C195.132 41.059 195.258 41.2638 195.417 41.436C195.57 41.6117 195.757 41.7508 195.965 41.8442C196.172 41.9377 196.395 41.9833 196.618 41.9782H203.618C204.729 41.9699 205.833 42.1814 206.871 42.6021C207.853 42.9867 208.759 43.5712 209.536 44.3234C210.321 45.0956 210.947 46.0369 211.371 47.086C211.796 48.1351 212.01 49.2686 212 50.4125C212.009 51.6187 211.782 52.8136 211.334 53.9198C210.905 54.9837 210.295 55.9525 209.536 56.777C208.76 57.6146 207.839 58.2788 206.823 58.7308C205.808 59.183 204.718 59.4139 203.618 59.4107L203.59 59.4236Z" fill="white"/>
</mask>
<g mask="url(#mask1_8_19)">
<path d="M212 0H0V60H212V0Z" fill="url(#paint0_linear_8_19)" stroke="black"/>
</g>
</g>
</g>
<defs>
<linearGradient id="paint0_linear_8_19" x1="0" y1="60" x2="29.6828" y2="-50.4089" gradientUnits="userSpaceOnUse">
<stop stop-color="#50F2C4"/>
<stop offset="0.396745" stop-color="#26D0E3"/>
<stop offset="1" stop-color="#757AFF"/>
</linearGradient>
<clipPath id="clip0_8_19">
<rect width="212" height="60" fill="white"/>
</clipPath>
</defs>
</svg>
