<svg width="22" height="25" viewBox="0 0 22 25" fill="none" xmlns="http://www.w3.org/2000/svg">
<path d="M11.0625 12.5C14.3766 12.5 17.0625 9.70215 17.0625 6.25C17.0625 2.79785 14.3766 0 11.0625 0C7.74844 0 5.0625 2.79785 5.0625 6.25C5.0625 9.70215 7.74844 12.5 11.0625 12.5ZM15.2625 14.0625H14.4797C13.4391 14.5605 12.2812 14.8438 11.0625 14.8438C9.84375 14.8438 8.69063 14.5605 7.64531 14.0625H6.8625C3.38437 14.0625 0.5625 17.002 0.5625 20.625V22.6562C0.5625 23.9502 1.57031 25 2.8125 25H19.3125C20.5547 25 21.5625 23.9502 21.5625 22.6562V20.625C21.5625 17.002 18.7406 14.0625 15.2625 14.0625Z" fill="black" fill-opacity="0.4"/>
</svg>
