<svg width="266" height="53" viewBox="0 0 266 53" fill="none" xmlns="http://www.w3.org/2000/svg">
<mask id="mask0_414_401" style="mask-type:alpha" maskUnits="userSpaceOnUse" x="70" y="1" width="196" height="52">
<path d="M89.1814 13.7548C92.6794 13.7548 95.5151 10.8995 95.5151 7.3774C95.5151 3.85525 92.6794 1 89.1814 1C85.6834 1 82.8477 3.85525 82.8477 7.3774C82.8477 10.8995 85.6834 13.7548 89.1814 13.7548Z" fill="white"/>
<path d="M114.601 13.7548C118.099 13.7548 120.935 10.8995 120.935 7.3774C120.935 3.85525 118.099 1 114.601 1C111.103 1 108.268 3.85525 108.268 7.3774C108.268 10.8995 111.103 13.7548 114.601 13.7548Z" fill="white"/>
<path d="M130.643 52.0713C129.344 52.8241 127.823 53.0917 126.348 52.827C124.873 52.5624 123.537 51.7824 122.576 50.6243L114.735 36.9446L114.268 36.1316C114.11 35.8566 113.925 35.598 113.716 35.3596C113.006 34.5592 112.044 34.0296 110.992 33.8598C109.939 33.69 108.861 33.8904 107.938 34.4272L107.842 34.4831C106.848 35.0567 106.101 35.9805 105.744 37.0762C105.387 38.1719 105.445 39.362 105.908 40.4167C105.971 40.5612 106.041 40.7019 106.12 40.8382L107.809 43.7844C108.262 44.7791 108.458 45.873 108.379 46.9646C108.301 48.0561 107.949 49.1099 107.358 50.0282C106.767 50.9464 105.955 51.6994 104.997 52.2173C104.039 52.7351 102.968 53.0009 101.881 52.9902C100.794 52.9794 99.7273 52.6924 98.78 52.1557C97.8328 51.619 97.0355 50.8501 96.4623 49.9203C95.889 48.9904 95.5583 47.9299 95.5009 46.837C95.4435 45.7441 95.6612 44.6544 96.1338 43.6688L96.156 43.6241L97.7783 40.7971C97.8302 40.7039 97.882 40.6107 97.9265 40.5174C98.4383 39.4561 98.5319 38.239 98.1883 37.111C97.8446 35.9831 97.0894 35.0281 96.0745 34.4384H96.0486C95.5217 34.1315 94.9399 33.9322 94.3364 33.852C93.733 33.7717 93.1197 33.8121 92.5318 33.9708C91.9439 34.1294 91.3927 34.4032 90.91 34.7766C90.4273 35.1499 90.0224 35.6154 89.7185 36.1465L89.2407 37.0154V36.9893L81.9033 49.7404C81.0575 51.2157 79.6643 52.2922 78.0302 52.7332C76.3961 53.1742 74.6549 52.9435 73.1898 52.0919C71.7246 51.2402 70.6554 49.8374 70.2175 48.1921C69.7795 46.5467 70.0086 44.7935 70.8544 43.3183L83.6589 20.9824C84.441 19.6089 85.7035 18.5784 87.1999 18.0921C87.3332 18.0473 87.4666 18.0063 87.5999 17.9727C87.8535 17.9067 88.1108 17.8557 88.3703 17.8198C88.6525 17.7794 88.9372 17.7595 89.2222 17.7601C90.3425 17.7585 91.4433 18.0546 92.4136 18.6184C93.3839 19.1822 94.1893 19.9938 94.7485 20.9712L101.949 33.5284L108.872 21.4299L109.138 20.9638C109.695 19.9907 110.496 19.1819 111.46 18.6184C112.425 18.0548 113.52 17.7563 114.635 17.7527H114.665C114.93 17.7533 115.194 17.7707 115.457 17.8049L115.828 17.8608L116.157 17.9317C116.996 18.1364 117.785 18.5107 118.476 19.0319C119.167 19.5532 119.745 20.2104 120.176 20.9638L120.443 21.4299L132.984 43.2996C133.403 44.0303 133.674 44.8369 133.783 45.6732C133.891 46.5094 133.836 47.3591 133.618 48.1737C133.401 48.9882 133.026 49.7517 132.516 50.4204C132.005 51.0892 131.369 51.6502 130.643 52.0713Z" fill="white"/>
<path d="M148.192 46.5145C148.433 46.5877 148.682 46.6377 148.933 46.6637C149.177 46.686 149.418 46.6972 149.673 46.6972C150.854 46.6976 152.011 46.3586 153.007 45.7201C153.503 45.408 153.948 45.0219 154.329 44.5752L155.459 43.2549L158.378 46.2124C158.588 46.4207 158.755 46.6691 158.87 46.9432C158.984 47.2172 159.042 47.5114 159.042 47.8086C159.042 48.1058 158.984 48.4 158.87 48.6741C158.755 48.9481 158.588 49.1966 158.378 49.4048C158.204 49.5801 158.007 49.748 157.837 49.9083C157.092 50.5619 156.273 51.1241 155.396 51.5829C154.523 52.043 153.598 52.3937 152.64 52.6271C150.037 53.2618 147.301 53.049 144.825 52.0192C143.34 51.3957 141.992 50.4832 140.858 49.334C139.707 48.1561 138.798 46.7623 138.18 45.2315C137.514 43.5736 137.181 41.7988 137.202 40.0103C137.18 38.1878 137.512 36.3785 138.18 34.6846C138.773 33.1695 139.666 31.7913 140.804 30.6336C141.941 29.4759 143.301 28.5626 144.799 27.9491C146.335 27.3178 147.981 26.9984 149.64 27.0093C150.647 27.009 151.649 27.1342 152.625 27.3823C153.587 27.6215 154.518 27.9759 155.396 28.4377C156.275 28.9005 157.097 29.4664 157.844 30.1234C158.441 30.6479 158.81 31.3864 158.874 32.1813C158.938 32.9762 158.69 33.7648 158.185 34.3788L148.192 46.5145ZM151.385 33.5956C151.109 33.4919 150.821 33.4218 150.529 33.3867C150.237 33.3564 149.944 33.3414 149.651 33.342C148.827 33.3366 148.01 33.4964 147.247 33.8119C146.508 34.1167 145.841 34.5741 145.288 35.1545C144.718 35.7607 144.272 36.4742 143.977 37.2542C143.647 38.1384 143.485 39.0771 143.499 40.0215C143.499 40.249 143.499 40.51 143.532 40.8009C143.566 41.0918 143.595 41.3865 143.647 41.6848C143.699 41.9832 143.766 42.2666 143.84 42.5426C143.907 42.8027 144.007 43.0533 144.136 43.2885L151.385 33.5956Z" fill="white"/>
<path d="M172.508 46.5144C172.75 46.588 172.998 46.638 173.249 46.6636C173.49 46.686 173.734 46.6972 173.99 46.6972C174.583 46.6987 175.173 46.6133 175.742 46.4436C176.301 46.2788 176.835 46.0352 177.327 45.7201C177.822 45.4062 178.267 45.0203 178.649 44.5751L179.779 43.2549L182.709 46.2385C182.916 46.4463 183.08 46.6934 183.193 46.9654C183.305 47.2374 183.363 47.529 183.363 47.8235C183.363 48.118 183.305 48.4096 183.193 48.6816C183.08 48.9536 182.916 49.2006 182.709 49.4085C182.527 49.5875 182.339 49.7591 182.153 49.9232C181.41 50.5767 180.592 51.1389 179.716 51.5977C178.843 52.0573 177.918 52.408 176.96 52.642C174.356 53.2765 171.618 53.0636 169.141 52.0341C167.657 51.4113 166.31 50.4987 165.178 49.3488C164.025 48.173 163.115 46.7786 162.5 45.2464C161.831 43.5892 161.497 41.814 161.519 40.0252C161.496 38.2023 161.829 36.3926 162.5 34.6995C163.095 33.1805 163.991 31.7992 165.133 30.6394C166.274 29.4796 167.638 28.5656 169.141 27.9528C170.679 27.321 172.325 27.0016 173.986 27.013C174.993 27.0131 175.995 27.1383 176.971 27.3859C177.932 27.6259 178.861 27.9802 179.738 28.4414C180.619 28.904 181.442 29.4698 182.19 30.1271C182.787 30.6516 183.157 31.3901 183.22 32.185C183.284 32.9799 183.037 33.7685 182.531 34.3824L172.508 46.5144ZM175.697 33.5955C175.423 33.4922 175.137 33.4221 174.845 33.3867C174.554 33.3563 174.261 33.3414 173.968 33.3419C173.143 33.3366 172.326 33.4963 171.564 33.8118C170.824 34.1158 170.157 34.5733 169.604 35.1545C169.034 35.7606 168.589 36.4741 168.293 37.2541C167.963 38.1383 167.801 39.077 167.815 40.0214C167.815 40.2489 167.815 40.51 167.849 40.8009C167.871 41.0974 167.909 41.3924 167.964 41.6848C168.013 41.9738 168.077 42.2602 168.156 42.5425C168.222 42.8032 168.321 43.054 168.452 43.2884L175.697 33.5955Z" fill="white"/>
<path d="M199.537 52.5265C198.079 52.5361 196.636 52.2428 195.296 51.665C192.677 50.5399 190.591 48.4394 189.473 45.8023C188.902 44.4538 188.612 43.0017 188.621 41.5358V34.2372H185.588V27.9978H188.621V24.4175C188.621 22.7649 189.272 21.1798 190.431 20.0095C191.59 18.8392 193.162 18.1793 194.803 18.1743V27.9978H204.237V34.2372H194.803V41.5358C194.8 42.1583 194.92 42.7752 195.154 43.3512C195.389 43.9272 195.734 44.4509 196.17 44.8923C196.602 45.3258 197.113 45.6726 197.674 45.9142C198.259 46.1653 198.89 46.2923 199.526 46.2871H204.241V50.2777C204.241 50.8711 204.007 51.4403 203.59 51.86C203.173 52.2796 202.608 52.5154 202.019 52.5154L199.537 52.5265Z" fill="white"/>
<path d="M215.078 21.2735C215.082 21.8344 214.969 22.3898 214.744 22.9033C214.532 23.3978 214.226 23.8462 213.844 24.2235C213.458 24.602 213.006 24.9054 212.511 25.1186C211.996 25.3376 211.442 25.4504 210.883 25.4504C210.324 25.4504 209.77 25.3376 209.255 25.1186C208.257 24.6984 207.46 23.904 207.033 22.9033C206.815 22.3898 206.703 21.8373 206.703 21.2791C206.703 20.7209 206.815 20.1684 207.033 19.6549C207.451 18.6426 208.25 17.838 209.255 17.4172C209.77 17.1957 210.323 17.0815 210.883 17.0815C211.443 17.0815 211.996 17.1957 212.511 17.4172C213.007 17.6277 213.459 17.9301 213.844 18.3086C214.228 18.6887 214.534 19.1411 214.744 19.64C214.968 20.155 215.082 20.7115 215.078 21.2735ZM211.744 52.5265H207.737V27.9493H214.004V50.259C214.004 50.8598 213.767 51.4359 213.345 51.8611C212.924 52.2862 212.352 52.5256 211.755 52.5265H211.744Z" fill="white"/>
<path d="M222.73 52.5263H218.744V27.9491C219.216 27.9491 219.683 28.0513 220.112 28.2489C220.542 28.4464 220.924 28.7346 221.233 29.094L222.3 30.3359C224.32 28.4871 226.952 27.4643 229.682 27.4679C231.131 27.4595 232.566 27.7528 233.897 28.3295C235.193 28.8853 236.37 29.6882 237.364 30.6939C238.356 31.704 239.148 32.895 239.697 34.2034C240.27 35.5552 240.562 37.0112 240.553 38.4811V50.2663C240.553 50.8657 240.316 51.4405 239.895 51.8644C239.475 52.2882 238.904 52.5263 238.308 52.5263H234.33V38.4811C234.33 37.8543 234.204 37.2339 233.96 36.6574C233.487 35.5273 232.596 34.627 231.475 34.1474C230.907 33.8989 230.294 33.772 229.674 33.7745C229.038 33.771 228.408 33.8978 227.822 34.1474C227.26 34.3799 226.749 34.7222 226.319 35.1544C225.892 35.5825 225.552 36.0889 225.315 36.6462C225.069 37.2222 224.943 37.8429 224.945 38.4699V50.2625C224.948 50.5579 224.893 50.8511 224.784 51.1251C224.674 51.3992 224.511 51.6486 224.305 51.8591C224.1 52.0695 223.854 52.2369 223.584 52.3514C223.313 52.4659 223.023 52.5254 222.73 52.5263Z" fill="white"/>
<path d="M258.225 52.5004H244.006C244.006 51.6807 244.166 50.869 244.478 50.1118C244.79 49.3545 245.246 48.6666 245.822 48.0871C246.398 47.5077 247.081 47.0482 247.834 46.7348C248.586 46.4215 249.392 46.2605 250.206 46.261H258.225C258.636 46.26 259.03 46.0955 259.32 45.8035C259.611 45.5115 259.775 45.1155 259.777 44.702C259.8 44.527 259.769 44.3491 259.687 44.1928C259.606 44.0365 259.478 43.9095 259.322 43.8293C258.97 43.6802 258.591 43.609 258.21 43.6205H251.754C250.713 43.6287 249.681 43.4178 248.725 43.0014C247.803 42.6053 246.966 42.0328 246.262 41.3157C245.561 40.5982 245 39.7543 244.61 38.8281C244.211 37.8604 244.006 36.8231 244.006 35.7755C244.006 34.7279 244.211 33.6906 244.61 32.723C244.998 31.7986 245.558 30.9579 246.262 30.2466C246.967 29.5363 247.804 28.9713 248.725 28.5832C249.683 28.174 250.714 27.9671 251.754 27.9753H258.159C259.802 27.9753 261.378 28.6327 262.54 29.8028C263.702 30.9729 264.355 32.5599 264.355 34.2147H251.762C251.352 34.2167 250.959 34.3816 250.669 34.6735C250.379 34.9654 250.216 35.3608 250.214 35.7737C250.21 35.9843 250.248 36.1936 250.327 36.3891C250.405 36.5845 250.521 36.762 250.669 36.9112C250.811 37.0635 250.984 37.1841 251.175 37.265C251.367 37.346 251.573 37.3855 251.78 37.3811H258.251C259.278 37.3739 260.298 37.5572 261.259 37.9218C262.167 38.2552 263.004 38.7617 263.722 39.4136C264.448 40.0828 265.027 40.8986 265.419 41.8078C265.812 42.7171 266.01 43.6995 266 44.6908C266.009 45.7362 265.799 46.7718 265.385 47.7304C264.988 48.6525 264.424 49.4922 263.722 50.2067C263.005 50.9327 262.153 51.5083 261.214 51.9001C260.275 52.2919 259.268 52.4921 258.251 52.4892L258.225 52.5004Z" fill="white"/>
</mask>
<g mask="url(#mask0_414_401)">
<rect x="44" y="-57" width="292" height="179" fill="url(#paint0_linear_414_401)"/>
</g>
<defs>
<linearGradient id="paint0_linear_414_401" x1="44" y1="122" x2="331.7" y2="-63.6625" gradientUnits="userSpaceOnUse">
<stop stop-color="#50F2C4"/>
<stop offset="0.396745" stop-color="#26D0E3"/>
<stop offset="1" stop-color="#757AFF"/>
</linearGradient>
</defs>
</svg>
