<svg width="12" height="30" viewBox="0 0 12 30" fill="none" xmlns="http://www.w3.org/2000/svg">
<path d="M6 0C8.07105 0 9.75 1.67895 9.75 3.75C9.75 5.82105 8.07105 7.5 6 7.5C3.92895 7.5 2.25 5.82105 2.25 3.75C2.25 1.67895 3.92895 0 6 0ZM8.8125 8.4375H8.14687C6.81615 9.04939 5.24121 9.07582 3.85313 8.4375H3.1875C1.63418 8.4375 0.375 9.69668 0.375 11.25V19.2188C0.375 19.9954 1.00459 20.625 1.78125 20.625H2.71875V28.5938C2.71875 29.3704 3.34834 30 4.125 30H7.875C8.65166 30 9.28125 29.3704 9.28125 28.5938V20.625H10.2188C10.9954 20.625 11.625 19.9954 11.625 19.2188V11.25C11.625 9.69668 10.3658 8.4375 8.8125 8.4375Z" fill="black"/>
</svg>
 