<svg width="22" height="25" viewBox="0 0 22 25" fill="none" xmlns="http://www.w3.org/2000/svg">
<path d="M19.3125 10.9375H18.1875V7.42188C18.1875 3.33008 14.9906 0 11.0625 0C7.13437 0 3.9375 3.33008 3.9375 7.42188V10.9375H2.8125C1.57031 10.9375 0.5625 11.9873 0.5625 13.2812V22.6562C0.5625 23.9502 1.57031 25 2.8125 25H19.3125C20.5547 25 21.5625 23.9502 21.5625 22.6562V13.2812C21.5625 11.9873 20.5547 10.9375 19.3125 10.9375ZM14.4375 10.9375H7.6875V7.42188C7.6875 5.4834 9.20156 3.90625 11.0625 3.90625C12.9234 3.90625 14.4375 5.4834 14.4375 7.42188V10.9375Z" fill="black" fill-opacity="0.4"/>
</svg>
