<svg width="21" height="21" viewBox="0 0 21 21" fill="none" xmlns="http://www.w3.org/2000/svg">
<path d="M20.4008 14.8395L15.807 12.8708C15.6108 12.7871 15.3927 12.7695 15.1855 12.8205C14.9784 12.8716 14.7935 12.9885 14.6586 13.1538L12.6242 15.6393C9.43144 14.134 6.862 11.5645 5.35664 8.37175L7.84219 6.33738C8.00776 6.20272 8.12495 6.01778 8.17601 5.81055C8.22708 5.60333 8.20924 5.38512 8.1252 5.18894L6.15645 0.595192C6.06421 0.383719 5.90107 0.211058 5.69516 0.106983C5.48926 0.0029067 5.25349 -0.0260608 5.02852 0.0250749L0.762891 1.00945C0.545987 1.05954 0.352466 1.18167 0.213911 1.3559C0.075356 1.53014 -4.99656e-05 1.74619 2.48399e-08 1.96881C2.48399e-08 12.4893 8.52715 21.0001 19.0312 21.0001C19.2539 21.0002 19.4701 20.9248 19.6444 20.7863C19.8187 20.6477 19.9409 20.4541 19.991 20.2372L20.9754 15.9715C21.0262 15.7455 20.9966 15.5088 20.8917 15.3021C20.7869 15.0955 20.6132 14.9319 20.4008 14.8395Z" fill="black" fill-opacity="0.4"/>
</svg>
