<svg width="62" height="57" viewBox="0 0 62 57" fill="none" xmlns="http://www.w3.org/2000/svg">
<rect width="62" height="57" fill="#F5F5F5"/>
<g clip-path="url(#clip0_0_1)">
<mask id="mask0_0_1" style="mask-type:luminance" maskUnits="userSpaceOnUse" x="0" y="0" width="62" height="57">
<path d="M18.6296 13.9838C22.0269 13.9838 24.7811 10.8534 24.7811 6.99189C24.7811 3.13037 22.0269 0 18.6296 0C15.2322 0 12.4781 3.13037 12.4781 6.99189C12.4781 10.8534 15.2322 13.9838 18.6296 13.9838Z" fill="white"/>
<path d="M43.3178 13.9838C46.7152 13.9838 49.4696 10.8534 49.4696 6.99189C49.4696 3.13037 46.7152 0 43.3178 0C39.9205 0 37.167 3.13037 37.167 6.99189C37.167 10.8534 39.9205 13.9838 43.3178 13.9838Z" fill="white"/>
<path d="M58.8982 55.9922C57.6366 56.8176 56.1594 57.1109 54.7268 56.8207C53.2942 56.5306 51.9967 55.6755 51.0633 54.4058L43.4479 39.408L42.9943 38.5167C42.8409 38.2152 42.6612 37.9317 42.4582 37.6703C41.7687 36.7928 40.8343 36.2121 39.8126 36.026C38.7899 35.8398 37.7429 36.0595 36.8465 36.648L36.7532 36.7093C35.7878 37.3382 35.0623 38.351 34.7156 39.5523C34.3689 40.7536 34.4252 42.0583 34.8749 43.2147C34.9361 43.3731 35.0041 43.5273 35.0808 43.6768L36.7212 46.9069C37.1611 47.9974 37.3515 49.1967 37.2748 50.3935C37.199 51.5901 36.8572 52.7455 36.2832 53.7523C35.7092 54.7589 34.9205 55.5845 33.9901 56.1523C33.0597 56.72 32.0195 57.0114 30.9637 56.9997C29.908 56.9878 28.872 56.6732 27.952 56.0848C27.032 55.4963 26.2577 54.6534 25.7009 53.634C25.1441 52.6145 24.823 51.4518 24.7672 50.2536C24.7115 49.0554 24.9229 47.8607 25.3819 46.7801L25.4035 46.7311L26.9791 43.6317C27.0295 43.5295 27.0798 43.4273 27.123 43.3251C27.6201 42.1615 27.711 40.8271 27.3773 39.5904C27.0435 38.3539 26.31 37.3068 25.3243 36.6603H25.2991C24.7874 36.3239 24.2223 36.1053 23.6362 36.0174C23.0502 35.9294 22.4545 35.9737 21.8835 36.1477C21.3125 36.3215 20.7772 36.6217 20.3084 37.0311C19.8396 37.4404 19.4463 37.9507 19.1512 38.533L18.6871 39.4856V39.457L11.5608 53.4367C10.7394 55.0542 9.38624 56.2344 7.79916 56.7179C6.21207 57.2014 4.52097 56.9485 3.09802 56.0148C1.67498 55.081 0.636544 53.5431 0.211243 51.7393C-0.214155 49.9353 0.00835534 48.0132 0.82982 46.3958L13.2659 21.9078C14.0255 20.4019 15.2517 19.2721 16.705 18.739C16.8345 18.6899 16.9641 18.6449 17.0935 18.6081C17.3398 18.5357 17.5897 18.4798 17.8418 18.4404C18.1158 18.3962 18.3923 18.3743 18.6691 18.375C19.7572 18.3732 20.8263 18.6979 21.7687 19.316C22.7111 19.9341 23.4933 20.8239 24.0364 21.8955L31.0298 35.6626L37.7536 22.3984L38.0119 21.8874C38.5529 20.8205 39.3309 19.9338 40.2671 19.316C41.2044 18.6981 42.2679 18.3708 43.3508 18.3669H43.3799C43.6373 18.3675 43.8937 18.3866 44.1491 18.4241L44.5095 18.4854L44.829 18.5631C45.6439 18.7876 46.4102 19.1979 47.0813 19.7693C47.7524 20.3409 48.3138 21.0614 48.7324 21.8874L48.9917 22.3984L61.1719 46.3753C61.5788 47.1764 61.842 48.0608 61.9479 48.9776C62.0528 49.8944 61.9993 50.826 61.7876 51.7191C61.5769 52.6121 61.2127 53.4491 60.7173 54.1823C60.221 54.9155 59.6033 55.5306 58.8982 55.9922Z" fill="white"/>
</mask>
<g mask="url(#mask0_0_1)">
<path d="M62.4622 0H0V57.0104H62.4622V0Z" fill="url(#paint0_linear_0_1)" stroke="black"/>
</g>
</g>
<defs>
<linearGradient id="paint0_linear_0_1" x1="-1.20675e-07" y1="57.0104" x2="55.6771" y2="-7.20724" gradientUnits="userSpaceOnUse">
<stop stop-color="#50F2C4"/>
<stop offset="0.396745" stop-color="#26D0E3"/>
<stop offset="1" stop-color="#757AFF"/>
</linearGradient>
<clipPath id="clip0_0_1">
<rect width="62" height="57" fill="white"/>
</clipPath>
</defs>
</svg>
