<svg width="98" height="107" viewBox="0 0 98 107" fill="none" xmlns="http://www.w3.org/2000/svg">
<path d="M58.3815 12.3476C54.3937 18.8394 54.5367 26.6347 57.996 32.7851C59.8022 35.9974 59.9587 39.8756 58.1155 43.0677L57.9169 43.4091C56.1123 46.5306 52.7776 48.4546 49.1703 48.4546H48.7747C45.0865 48.4546 41.804 46.3792 39.922 43.2107C36.3197 37.1427 29.6352 33.1214 22.013 33.3266C11.5276 33.6075 2.78601 42.2302 2.38201 52.7012C1.93592 64.2115 11.1438 73.6819 22.5669 73.6819C29.987 73.6819 36.4577 69.6791 39.9624 63.7204C41.8175 60.5687 45.1134 58.5455 48.773 58.5455H49.1686C52.7776 58.5455 56.1106 60.4695 57.9152 63.5909L58.1121 63.9324C59.9571 67.1244 59.7988 71.001 57.9926 74.215C54.535 80.3654 54.392 88.1606 58.3781 94.6525C63.8641 103.585 75.7097 106.837 84.9882 101.952C95.1876 96.5815 98.7933 83.8787 93.0834 73.9964C89.3733 67.5769 82.6686 63.9795 75.7518 63.9256C72.0922 63.897 68.6902 62.0571 66.8604 58.8903L66.6635 58.5455C64.8589 55.424 64.8589 51.576 66.6635 48.4546L66.8621 48.1115C68.6919 44.9446 72.0939 43.1047 75.7535 43.0761C82.6703 43.0223 89.375 39.4249 93.0851 33.0054C98.7966 23.123 95.1909 10.4203 84.9899 5.05022C75.7131 0.162859 63.8675 3.41549 58.3815 12.3476Z" stroke="#3DB2FF" stroke-width="4" stroke-miterlimit="10" stroke-linecap="round" stroke-linejoin="round"/>
</svg>
