<svg width="28" height="17" viewBox="0 0 28 17" fill="none" xmlns="http://www.w3.org/2000/svg">
<path d="M27.023 16.1968C26.0669 16.8084 22.1771 16.9903 21.2357 16.2918C20.7192 15.9089 20.247 15.4294 19.7983 14.9735C19.485 14.6544 19.1285 14.4995 18.8591 14.1533C18.6397 13.8697 18.4887 13.5355 18.2568 13.2565C17.8659 12.7871 17.2635 12.388 16.7868 12.9613C16.0697 13.8233 16.8999 15.5179 15.9434 16.1624C15.6225 16.3787 15.299 16.4413 14.8983 16.4104L14.0106 16.4518C13.4888 16.4622 12.6628 16.4668 12.0699 16.3575C11.4077 16.2358 10.8617 15.8664 10.2639 15.5952C9.12801 15.0809 8.04547 14.3801 7.22212 13.4091C4.98136 10.7653 1.97136 7.1288 0.802171 3.80453C0.561144 3.12144 -0.0733968 1.76955 0.528603 1.18344C1.34741 0.576075 5.36768 0.404143 5.99428 1.34417C6.2493 1.72551 6.40974 2.28535 6.58985 2.71769C6.81385 3.25705 6.93568 3.76589 7.28606 4.24344C7.59633 4.66728 7.82563 5.09305 8.0659 5.55785C8.33568 6.07905 8.58995 6.57901 8.91801 7.05926C9.14049 7.38573 9.72887 8.03444 10.1004 8.08312C11.0078 8.20174 10.951 5.95001 10.8837 5.39983C10.8194 4.87012 10.8023 4.30835 10.8194 3.77092C10.8341 3.31269 10.8746 2.66707 10.6086 2.29269C10.1754 1.68223 9.21049 2.1393 9.13482 1.31905C9.29449 1.08607 9.26044 0.87937 10.3252 0.521598C11.1633 0.239938 11.7048 0.248825 12.2576 0.294029C13.3851 0.38637 14.5804 0.0745748 15.6683 0.447802C16.7073 0.805189 16.5469 2.31317 16.5121 3.21726C16.4655 4.45169 16.5151 5.65598 16.5121 6.90819C16.5105 7.47885 16.4886 8.03328 17.1689 7.9873C17.8076 7.94364 17.8723 7.39539 18.1769 6.94258C18.6011 6.31164 18.9897 5.67221 19.4214 5.04321C20.003 4.1936 20.1782 3.23889 20.7257 2.36842C20.9217 2.05662 21.0901 1.37623 21.3916 1.13012C21.6202 0.944279 22.0538 1.02387 22.33 1.02387H22.9869C23.4901 1.03005 24.0032 1.03739 24.5197 1.05594C25.264 1.08221 26.0975 0.917234 26.8357 1.02348C30.0202 1.48248 22.8333 8.43819 23.2071 9.67919C23.4659 10.5361 25.105 11.4963 25.6968 12.1987C26.4857 13.1329 28.904 14.9948 27.023 16.1968Z" fill="#515151"/>
</svg>
