<svg width="63" height="34" viewBox="0 0 63 34" fill="none" xmlns="http://www.w3.org/2000/svg">
<path d="M58.9247 33.052C57.6699 33.7733 56.199 34.0305 54.7719 33.7783C53.3448 33.526 52.0532 32.7805 51.1254 31.6734L43.5632 18.6466L43.1123 17.8734C42.9581 17.6107 42.7776 17.3642 42.5735 17.1377V17.1377C41.8894 16.3761 40.9626 15.8717 39.9486 15.7092C38.9347 15.5466 37.8954 15.7357 37.0051 16.2448L36.9135 16.2984C35.9551 16.8488 35.2362 17.7331 34.8961 18.7802C34.556 19.8273 34.6188 20.9626 35.0723 21.9663C35.1327 22.1034 35.2011 22.237 35.2771 22.3662L36.9063 25.1734C37.3437 26.1208 37.5333 27.1627 37.4574 28.2024C37.3815 29.242 37.0427 30.2458 36.4723 31.1205C35.9019 31.9952 35.1184 32.7124 34.1946 33.2057C33.2709 33.6989 32.2367 33.9521 31.1882 33.9418C30.1397 33.9315 29.1108 33.658 28.197 33.1467C27.2832 32.6354 26.5142 31.9029 25.9613 31.0172C25.4084 30.1314 25.0896 29.1212 25.0344 28.0802C24.9792 27.0392 25.1895 26.0013 25.6456 25.0627L25.6672 25.0198L27.2317 22.3288C27.282 22.2395 27.3323 22.1502 27.3754 22.0609C27.3754 22.0609 27.3754 22.0609 27.3754 22.0466C27.8691 21.0361 27.9591 19.8771 27.6275 18.8032C27.2958 17.7293 26.5671 16.8202 25.5882 16.2591L25.563 16.2448C25.0547 15.9523 24.4934 15.7623 23.9112 15.6857C23.3289 15.6092 22.7372 15.6475 22.1699 15.7987C21.6026 15.9498 21.0709 16.2106 20.6051 16.5664C20.1394 16.9221 19.7488 17.3656 19.4558 17.8716L18.9672 18.7127L18.9528 18.6877L11.908 30.8305C11.0697 32.1908 9.73005 33.1717 8.17466 33.564C6.61927 33.9562 4.97128 33.7288 3.58217 32.9302C2.19305 32.1316 1.17276 30.8251 0.738909 29.2893C0.305055 27.7534 0.491975 26.1099 1.2598 24.7091L13.609 3.43946C14.3619 2.13142 15.579 1.15006 17.0219 0.687676C17.1512 0.644819 17.2787 0.605533 17.4081 0.57339C17.6528 0.510617 17.9012 0.462319 18.1517 0.428748C18.4236 0.390056 18.6979 0.370957 18.9726 0.371604C20.0526 0.368753 21.1142 0.649249 22.0503 1.18477C22.9863 1.72029 23.7637 2.49187 24.3038 3.4216L31.2481 15.3859L37.9356 3.87339L38.1942 3.42875C38.7309 2.50214 39.503 1.732 40.4333 1.19545C41.3636 0.658909 42.4194 0.374806 43.4949 0.371604H43.5237C43.7796 0.372195 44.0351 0.388895 44.2889 0.421603C44.4021 0.435889 44.517 0.453747 44.6302 0.475175C44.7433 0.496604 44.8421 0.516246 44.9481 0.541246C45.7569 0.735132 46.5175 1.09044 47.1839 1.58559C47.8502 2.08074 48.4084 2.7054 48.8244 3.4216L49.0831 3.86625L61.179 24.6912C61.5836 25.3873 61.8462 26.1557 61.9518 26.9527C62.0575 27.7497 62.0041 28.5596 61.7947 29.336C61.5854 30.1125 61.2241 30.8403 60.7317 31.4779C60.2392 32.1155 59.6252 32.6504 58.9247 33.052V33.052Z" fill="#48BFDA"/>
</svg>
