<svg width="241" height="64" viewBox="0 0 241 64" fill="none" xmlns="http://www.w3.org/2000/svg">
<mask id="mask0_254_129" style="mask-type:alpha" maskUnits="userSpaceOnUse" x="0" y="0" width="241" height="64">
<path d="M23.4895 15.4906C27.773 15.4906 31.2455 12.0229 31.2455 7.74528C31.2455 3.46768 27.773 0 23.4895 0C19.2059 0 15.7334 3.46768 15.7334 7.74528C15.7334 12.0229 19.2059 15.4906 23.4895 15.4906Z" fill="white"/>
<path d="M54.6174 15.4906C58.901 15.4906 62.3735 12.0229 62.3735 7.74528C62.3735 3.46768 58.901 0 54.6174 0C50.3338 0 46.8613 3.46768 46.8613 7.74528C46.8613 12.0229 50.3338 15.4906 54.6174 15.4906Z" fill="white"/>
<path d="M74.2618 62.0258C72.6712 62.9401 70.8087 63.265 69.0019 62.9436C67.1951 62.6222 65.5596 61.6749 64.383 60.2684L54.7809 43.6545L54.2094 42.6671C54.0155 42.3332 53.7891 42.0192 53.5336 41.7295V41.7295C52.6641 40.7576 51.4859 40.1143 50.1972 39.9081C48.9085 39.7019 47.588 39.9452 46.4579 40.5972L46.34 40.6651C45.1232 41.3617 44.208 42.4836 43.7708 43.8144C43.3336 45.1451 43.4053 46.5904 43.9723 47.8714C44.0485 48.0469 44.1348 48.2178 44.2308 48.3832L46.2991 51.9615C46.8542 53.1695 47.0946 54.498 46.9982 55.8237C46.9017 57.1493 46.4715 58.4292 45.7474 59.5444C45.0233 60.6596 44.0288 61.5742 42.8562 62.203C41.6836 62.8319 40.371 63.1548 39.04 63.1417C37.7091 63.1287 36.4031 62.7801 35.2431 62.1283C34.0831 61.4765 33.1068 60.5426 32.4048 59.4134C31.7028 58.2841 31.2979 56.9961 31.2276 55.6688C31.1572 54.3415 31.4238 53.018 32.0026 51.8211L32.0298 51.7667L34.0164 48.3334C34.0799 48.2202 34.1434 48.1069 34.1978 47.9937C34.8247 46.7048 34.9392 45.2266 34.5184 43.8567C34.0976 42.4868 33.1727 41.327 31.93 40.6108H31.8982C31.253 40.2381 30.5406 39.9961 29.8016 39.8986C29.0626 39.8012 28.3117 39.8502 27.5917 40.0429C26.8717 40.2356 26.1969 40.5681 25.6057 41.0215C25.0146 41.4749 24.5188 42.0403 24.1467 42.6852L23.5616 43.7406V43.7089L14.5763 59.195C13.5406 60.9867 11.8345 62.2941 9.83348 62.8297C7.83242 63.3652 5.70027 63.085 3.90607 62.0507C2.11188 61.0164 0.802614 59.3128 0.266303 57.3145C-0.270007 55.3162 0.0105682 53.187 1.0463 51.3953L16.7263 24.2687C17.684 22.6006 19.23 21.349 21.0624 20.7584C21.2257 20.704 21.389 20.6542 21.5523 20.6134C21.8629 20.5333 22.1779 20.4713 22.4957 20.4277C22.8412 20.3786 23.1899 20.3544 23.5389 20.3552C24.9108 20.3533 26.2588 20.7128 27.447 21.3976C28.6352 22.0823 29.6215 23.068 30.3062 24.2551L39.1236 39.5056L47.6009 24.8122L47.9275 24.246C48.6091 23.0642 49.5896 22.082 50.7709 21.3976C51.9522 20.7132 53.2928 20.3506 54.6584 20.3462H54.6947C55.0193 20.3469 55.3435 20.3681 55.6654 20.4096L56.1189 20.4775L56.5226 20.5636C57.5501 20.8122 58.5162 21.2668 59.3622 21.8998C60.2082 22.5329 60.9164 23.3311 61.4439 24.246L61.7704 24.8122L77.1284 51.3727C77.6407 52.2601 77.9729 53.2396 78.1061 54.2553C78.2393 55.271 78.1709 56.3029 77.9047 57.2922C77.6385 58.2814 77.1798 59.2086 76.5547 60.0208C75.9297 60.833 75.1505 61.5143 74.2618 62.0258V62.0258Z" fill="white"/>
<path d="M95.7517 55.2771C96.0477 55.366 96.3514 55.4267 96.6589 55.4582C96.9582 55.4854 97.2531 55.499 97.566 55.499C99.0121 55.4994 100.428 55.0878 101.648 54.3123C102.255 53.9332 102.801 53.4644 103.267 52.9218L104.651 51.3183L108.225 54.9102C108.483 55.1631 108.688 55.4648 108.827 55.7977C108.967 56.1305 109.039 56.4878 109.039 56.8488C109.039 57.2097 108.967 57.567 108.827 57.8999C108.688 58.2327 108.483 58.5344 108.225 58.7874C108.012 59.0002 107.771 59.2041 107.563 59.3988C106.651 60.1926 105.647 60.8753 104.574 61.4325C103.505 61.9914 102.372 62.4173 101.199 62.7008C98.0111 63.4716 94.6604 63.2131 91.6288 61.9625C89.8104 61.2053 88.1596 60.097 86.771 58.7013C85.362 57.2708 84.2478 55.578 83.4917 53.7189C82.6755 51.7054 82.2685 49.5499 82.2943 47.3778C82.2668 45.1644 82.6736 42.967 83.4917 40.9098C84.2184 39.0697 85.3114 37.3959 86.7046 35.9899C88.0978 34.5839 89.7622 33.4747 91.597 32.7296C93.4785 31.9628 95.4931 31.5749 97.5252 31.5882C98.7579 31.5878 99.9858 31.7399 101.181 32.0412C102.359 32.3317 103.498 32.7621 104.574 33.323C105.65 33.8851 106.657 34.5723 107.572 35.3703V35.3703C108.302 36.0073 108.755 36.9041 108.833 37.8696C108.911 38.835 108.608 39.7927 107.989 40.5383L95.7517 55.2771ZM99.6615 39.5872C99.3236 39.4613 98.9719 39.3762 98.6138 39.3335C98.2567 39.2966 97.8978 39.2785 97.5388 39.2792C96.5294 39.2727 95.5288 39.4667 94.5951 39.8499C93.6901 40.2201 92.8728 40.7756 92.1957 41.4805C91.4976 42.2166 90.952 43.0832 90.5901 44.0305C90.1861 45.1043 89.9876 46.2444 90.005 47.3913C90.005 47.6676 90.005 47.9847 90.0458 48.338C90.0866 48.6913 90.1229 49.0491 90.1864 49.4115C90.2499 49.7738 90.3316 50.1181 90.4223 50.4532C90.5048 50.7692 90.6267 51.0735 90.7851 51.3591L99.6615 39.5872Z" fill="white"/>
<path d="M125.529 55.2769C125.825 55.3663 126.129 55.427 126.436 55.4581C126.731 55.4853 127.03 55.4989 127.343 55.4989C128.07 55.5008 128.792 55.397 129.489 55.1909C130.174 54.9908 130.828 54.6949 131.43 54.3122C132.036 53.9309 132.581 53.4624 133.049 52.9216L134.433 51.3182L138.021 54.9418C138.274 55.1942 138.476 55.4943 138.613 55.8246C138.75 56.1549 138.821 56.5091 138.821 56.8668C138.821 57.2244 138.75 57.5786 138.613 57.9089C138.476 58.2393 138.274 58.5393 138.021 58.7918C137.798 59.0092 137.567 59.2175 137.34 59.4168C136.43 60.2106 135.428 60.8933 134.356 61.4505C133.287 62.0087 132.153 62.4346 130.981 62.7188C127.792 63.4893 124.439 63.2309 121.406 61.9805C119.589 61.2241 117.939 60.1157 116.553 58.7193C115.141 57.2912 114.026 55.5978 113.274 53.7369C112.454 51.7243 112.045 49.5684 112.072 47.3958C112.043 45.1819 112.452 42.9841 113.274 40.9278C114.003 39.083 115.099 37.4054 116.497 35.9969C117.895 34.5884 119.565 33.4783 121.406 32.7341C123.289 31.9667 125.305 31.5788 127.339 31.5926C128.572 31.5927 129.799 31.7449 130.995 32.0456C132.171 32.337 133.308 32.7673 134.383 33.3274C135.461 33.8892 136.469 34.5764 137.386 35.3747C138.116 36.0117 138.569 36.9086 138.647 37.874C138.725 38.8394 138.422 39.7971 137.803 40.5428L125.529 55.2769ZM129.434 39.5871C129.098 39.4616 128.748 39.3764 128.391 39.3334C128.034 39.2965 127.675 39.2784 127.316 39.2791C126.307 39.2726 125.306 39.4666 124.373 39.8498C123.467 40.2189 122.649 40.7745 121.973 41.4804C121.275 42.2165 120.729 43.0831 120.367 44.0304C119.964 45.1042 119.765 46.2443 119.782 47.3912C119.782 47.6675 119.782 47.9846 119.823 48.3379C119.851 48.698 119.898 49.0563 119.964 49.4114C120.024 49.7624 120.103 50.1102 120.2 50.4531C120.28 50.7697 120.402 51.0743 120.563 51.359L129.434 39.5871Z" fill="white"/>
<path d="M158.626 62.5783C156.842 62.5899 155.074 62.2337 153.433 61.532C150.226 60.1655 147.671 57.6145 146.303 54.4118C145.604 52.7741 145.249 51.0105 145.26 49.2301V40.3661H141.545V32.7884H145.26V28.4402C145.26 26.4331 146.057 24.508 147.476 23.0867C148.895 21.6654 150.82 20.8639 152.83 20.8579V20.8579V32.7884H164.382V40.3661H152.83V49.2301C152.826 49.9862 152.972 50.7355 153.26 51.435C153.547 52.1346 153.97 52.7706 154.503 53.3066C155.033 53.8331 155.658 54.2542 156.345 54.5477C157.062 54.8527 157.834 55.0068 158.613 55.0006H164.387V59.8471C164.387 60.5679 164.1 61.2591 163.59 61.7688C163.079 62.2784 162.387 62.5647 161.665 62.5647L158.626 62.5783Z" fill="white"/>
<path d="M177.658 24.6219C177.663 25.303 177.524 25.9776 177.249 26.6012C176.989 27.2018 176.615 27.7464 176.147 28.2046C175.675 28.6642 175.121 29.0328 174.514 29.2917C173.883 29.5577 173.206 29.6947 172.521 29.6947C171.836 29.6947 171.158 29.5577 170.527 29.2917C169.305 28.7813 168.329 27.8166 167.806 26.6012C167.54 25.9776 167.402 25.3066 167.402 24.6287C167.402 23.9507 167.54 23.2797 167.806 22.6561C168.318 21.4266 169.296 20.4495 170.527 19.9384C171.158 19.6694 171.836 19.5308 172.521 19.5308C173.206 19.5308 173.884 19.6694 174.514 19.9384C175.122 20.1941 175.676 20.5613 176.147 21.021C176.617 21.4826 176.992 22.032 177.249 22.638C177.523 23.2634 177.662 23.9393 177.658 24.6219V24.6219ZM173.575 62.5783H168.668V32.7295H176.342V59.8245C176.342 60.554 176.052 61.2538 175.536 61.7701C175.02 62.2865 174.32 62.5771 173.589 62.5783H173.575Z" fill="white"/>
<path d="M187.029 62.5784H182.148V32.7295C182.727 32.7295 183.298 32.8537 183.824 33.0936C184.35 33.3336 184.818 33.6836 185.196 34.1201L186.503 35.6284C188.976 33.383 192.2 32.1408 195.542 32.1452C197.317 32.135 199.074 32.4912 200.704 33.1915C202.291 33.8666 203.733 34.8417 204.949 36.0632C206.164 37.2899 207.134 38.7364 207.807 40.3254C208.509 41.9671 208.866 43.7355 208.855 45.5206V59.8335C208.855 60.5615 208.565 61.2597 208.05 61.7744C207.534 62.2892 206.835 62.5784 206.106 62.5784H201.235V45.5206C201.235 44.7593 201.081 44.0059 200.781 43.3057C200.202 41.9332 199.11 40.8399 197.738 40.2574C197.042 39.9556 196.292 39.8014 195.533 39.8045C194.754 39.8002 193.983 39.9543 193.265 40.2574C192.577 40.5398 191.951 40.9554 191.424 41.4804C190.902 42.0002 190.485 42.6153 190.195 43.2921C189.893 43.9916 189.739 44.7455 189.741 45.507V59.829C189.745 60.1878 189.678 60.5439 189.544 60.8766C189.41 61.2094 189.211 61.5124 188.959 61.768C188.706 62.0236 188.406 62.2268 188.075 62.3659C187.744 62.505 187.388 62.5772 187.029 62.5784V62.5784Z" fill="white"/>
<path d="M230.495 62.5464H213.082C213.082 61.5509 213.278 60.5652 213.66 59.6455C214.042 58.7259 214.601 57.8903 215.306 57.1866C216.011 56.4829 216.848 55.9248 217.77 55.5442C218.691 55.1637 219.678 54.9681 220.675 54.9687H230.495C230.998 54.9675 231.48 54.7678 231.836 54.4132C232.192 54.0585 232.393 53.5776 232.395 53.0754C232.423 52.8628 232.385 52.6468 232.285 52.457C232.185 52.2672 232.029 52.113 231.837 52.0155C231.407 51.8345 230.943 51.748 230.476 51.7619H222.571C221.295 51.7718 220.031 51.5157 218.861 51.01C217.732 50.529 216.708 49.8337 215.844 48.9627C214.986 48.0914 214.3 47.0665 213.821 45.9416C213.333 44.7664 213.082 43.5066 213.082 42.2343C213.082 40.962 213.333 39.7022 213.821 38.527C214.296 37.4043 214.983 36.3833 215.844 35.5194C216.709 34.6568 217.733 33.9706 218.861 33.4993C220.034 33.0023 221.296 32.751 222.571 32.761H230.413C232.426 32.761 234.356 33.5594 235.779 34.9805C237.202 36.4016 238.001 38.329 238.001 40.3387H222.58C222.078 40.3411 221.597 40.5413 221.242 40.8959C220.887 41.2504 220.686 41.7306 220.684 42.232C220.679 42.4879 220.726 42.7421 220.822 42.9794C220.918 43.2167 221.061 43.4324 221.242 43.6135C221.416 43.7985 221.627 43.9449 221.861 44.0433C222.096 44.1416 222.348 44.1896 222.602 44.1842H230.526C231.784 44.1754 233.033 44.3981 234.209 44.841C235.322 45.2459 236.346 45.861 237.226 46.6527C238.115 47.4654 238.824 48.4561 239.304 49.5604C239.785 50.6648 240.027 51.8578 240.015 53.0618C240.026 54.3314 239.769 55.5891 239.262 56.7533C238.776 57.8732 238.085 58.8931 237.226 59.7608C236.348 60.6425 235.304 61.3415 234.154 61.8174C233.004 62.2932 231.771 62.5364 230.526 62.5328L230.495 62.5464Z" fill="white"/>
</mask>
<g mask="url(#mask0_254_129)">
<rect x="-26" y="-58" width="292" height="179" fill="url(#paint0_linear_254_129)"/>
</g>
<defs>
<linearGradient id="paint0_linear_254_129" x1="-26" y1="121" x2="261.7" y2="-64.6625" gradientUnits="userSpaceOnUse">
<stop stop-color="#50F2C4"/>
<stop offset="0.396745" stop-color="#26D0E3"/>
<stop offset="1" stop-color="#757AFF"/>
</linearGradient>
</defs>
</svg>
