<svg width="62" height="49" viewBox="0 0 62 49" fill="none" xmlns="http://www.w3.org/2000/svg">
<mask id="mask0_254_107" style="mask-type:alpha" maskUnits="userSpaceOnUse" x="0" y="0" width="62" height="49">
<path d="M17.9334 12.5608C21.3063 12.5608 24.0407 9.84256 24.0407 6.4894C24.0407 3.13624 21.3063 0.417969 17.9334 0.417969C14.5605 0.417969 11.8262 3.13624 11.8262 6.4894C11.8262 9.84256 14.5605 12.5608 17.9334 12.5608Z" fill="#48BFD9"/>
<path d="M42.452 12.5608C45.8249 12.5608 48.5592 9.84256 48.5592 6.4894C48.5592 3.13624 45.8249 0.417969 42.452 0.417969C39.079 0.417969 36.3447 3.13624 36.3447 6.4894C36.3447 9.84256 39.079 12.5608 42.452 12.5608Z" fill="#48BFD9"/>
<path d="M58.4149 47.6804C57.1601 48.4017 55.6892 48.6589 54.2621 48.4067C52.835 48.1544 51.5435 47.4089 50.6156 46.3018L43.0534 33.275L42.6026 32.5018C42.4484 32.2391 42.2678 31.9926 42.0637 31.7661C41.3796 31.0046 40.4528 30.5002 39.4389 30.3376C38.4249 30.175 37.3856 30.3641 36.4953 30.8732L36.4037 30.9268C35.4453 31.4772 34.7265 32.3615 34.3863 33.4086C34.0462 34.4557 34.109 35.591 34.5626 36.5947C34.6229 36.7319 34.6913 36.8654 34.7674 36.9947L36.3965 39.8018C36.834 40.7492 37.0235 41.7911 36.9477 42.8308C36.8718 43.8705 36.5329 44.8742 35.9625 45.7489C35.3921 46.6236 34.6086 47.3409 33.6849 47.8341C32.7611 48.3273 31.7269 48.5805 30.6784 48.5702C29.6299 48.5599 28.601 48.2864 27.6872 47.7751C26.7735 47.2638 26.0044 46.5313 25.4515 45.6456C24.8986 44.7599 24.5798 43.7496 24.5246 42.7086C24.4694 41.6677 24.6797 40.6297 25.1359 39.6911L25.1574 39.6482L26.722 36.9572C26.7723 36.8679 26.8226 36.7786 26.8657 36.6893C26.8657 36.6893 26.8657 36.6893 26.8657 36.675C27.3593 35.6645 27.4494 34.5055 27.1177 33.4316C26.7861 32.3577 26.0574 31.4486 25.0784 30.8875L25.0533 30.8732C24.545 30.5807 23.9836 30.3907 23.4014 30.3141C22.8192 30.2376 22.2275 30.276 21.6602 30.4271C21.0929 30.5782 20.5611 30.8391 20.0954 31.1948C19.6296 31.5505 19.2391 31.994 18.946 32.5L18.4574 33.3411L18.4431 33.3161L11.3982 45.459C10.56 46.8192 9.22028 47.8001 7.6649 48.1924C6.10951 48.5846 4.46152 48.3572 3.0724 47.5586C1.68329 46.76 0.662997 45.4535 0.229143 43.9177C-0.204711 42.3819 -0.0177905 40.7383 0.750037 39.3375L13.0992 18.0679C13.8521 16.7598 15.0693 15.7785 16.5121 15.3161C16.6414 15.2732 16.769 15.234 16.8983 15.2018C17.1431 15.139 17.3914 15.0907 17.6419 15.0572C17.9138 15.0185 18.1882 14.9994 18.4628 15C19.5428 14.9972 20.6044 15.2777 21.5405 15.8132C22.4766 16.3487 23.2539 17.1203 23.7941 18.05L30.7384 30.0143L37.4258 18.5018L37.6845 18.0572C38.2211 17.1306 38.9933 16.3604 39.9236 15.8239C40.8539 15.2873 41.9097 15.0032 42.9852 15H43.0139C43.2698 15.0006 43.5254 15.0173 43.7791 15.05C43.8923 15.0643 44.0072 15.0822 44.1204 15.1036C44.2336 15.125 44.3324 15.1447 44.4383 15.1697C45.2471 15.3635 46.0077 15.7189 46.6741 16.214C47.3405 16.7092 47.8986 17.3338 48.3146 18.05L48.5733 18.4947L60.6692 39.3197C61.0738 40.0157 61.3364 40.7842 61.4421 41.5811C61.5477 42.3781 61.4943 43.188 61.285 43.9645C61.0756 44.7409 60.7144 45.4688 60.2219 46.1064C59.7295 46.744 59.1154 47.2788 58.4149 47.6804Z" fill="#48BFD9"/>
</mask>
<g mask="url(#mask0_254_107)">
<rect x="-6" y="-11" width="125" height="68" fill="url(#paint0_linear_254_107)"/>
</g>
<defs>
<linearGradient id="paint0_linear_254_107" x1="-6" y1="57" x2="108.107" y2="-25.979" gradientUnits="userSpaceOnUse">
<stop stop-color="#50F2C4"/>
<stop offset="0.396745" stop-color="#26D0E3"/>
<stop offset="1" stop-color="#757AFF"/>
</linearGradient>
</defs>
</svg>
